<?xml version="1.0" encoding="UTF-8" standalone="no"?><!DOCTYPE svg PUBLIC "-//W3C//DTD SVG 1.1//EN" "http://www.w3.org/Graphics/SVG/1.1/DTD/svg11.dtd"><svg width="100%" height="100%" viewBox="0 0 1277 655" version="1.1" xmlns="http://www.w3.org/2000/svg" xmlns:xlink="http://www.w3.org/1999/xlink" xml:space="preserve" xmlns:serif="http://www.serif.com/" style="fill-rule:evenodd;clip-rule:evenodd;stroke-linejoin:round;stroke-miterlimit:1.41421;"><rect id="ArtBoard3" x="0" y="0" width="1276.92" height="654.117" style="fill:none;"/><clipPath id="_clip1"><rect x="0" y="0" width="1276.92" height="654.117"/></clipPath><g clip-path="url(#_clip1)"><rect x="0" y="-116.75" width="1280" height="765.927" style="fill:#8fd2ee;"/><path d="M765.601,23.013c3.088,-11.375 15.174,-19.872 29.595,-19.872c14.058,0 25.897,8.075 29.344,19.02c4.096,-1.925 8.857,-3.028 13.936,-3.028c15.297,0 27.716,10.008 27.716,22.336c0,4.927 -1.984,9.484 -5.343,13.179c0.233,1.092 0.352,2.202 0.352,3.327c0,10.677 -10.767,20.024 -26.829,25.127c-2.484,9.391 -12.119,16.4 -23.611,16.4c-9.445,0 -17.634,-4.733 -21.632,-11.632c-5.204,3.064 -12.086,4.929 -19.629,4.929c-16.212,0 -29.375,-8.617 -29.375,-19.23c0,-1.025 0.123,-2.031 0.359,-3.012c-12.345,-3.368 -21.305,-13.34 -21.305,-25.104c0,-14.527 13.662,-26.32 30.49,-26.32c5.837,0 11.294,1.419 15.932,3.88Z" style="fill:#dbf4ff;"/><path d="M765.601,23.013c3.088,-11.375 15.174,-19.872 29.595,-19.872c14.058,0 25.897,8.075 29.344,19.02c4.096,-1.925 8.857,-3.028 13.936,-3.028c15.297,0 27.716,10.008 27.716,22.336c0,4.927 -1.984,9.484 -5.343,13.179c0.233,1.092 0.352,2.202 0.352,3.327c0,10.677 -10.767,20.024 -26.829,25.127c-2.484,9.391 -12.119,16.4 -23.611,16.4c-9.445,0 -17.634,-4.733 -21.632,-11.632c-5.204,3.064 -12.086,4.929 -19.629,4.929c-16.212,0 -29.375,-8.617 -29.375,-19.23c0,-1.025 0.123,-2.031 0.359,-3.012c-12.345,-3.368 -21.305,-13.34 -21.305,-25.104c0,-14.527 13.662,-26.32 30.49,-26.32c5.837,0 11.294,1.419 15.932,3.88Z" style="fill:#dbf4ff;"/><path d="M1056.44,230.964c4.02,-11.375 19.755,-19.872 38.529,-19.872c18.303,0 33.716,8.075 38.204,19.02c5.332,-1.925 11.531,-3.029 18.143,-3.029c19.915,0 36.083,10.009 36.083,22.337c0,4.927 -2.582,9.484 -6.955,13.179c0.303,1.092 0.459,2.202 0.459,3.327c0,10.677 -14.019,20.024 -34.93,25.127c-3.233,9.391 -15.777,16.4 -30.74,16.4c-12.296,0 -22.958,-4.733 -28.162,-11.632c-6.775,3.064 -15.735,4.928 -25.555,4.928c-21.108,0 -38.244,-8.616 -38.244,-19.229c0,-1.025 0.16,-2.031 0.467,-3.013c-16.072,-3.367 -27.737,-13.339 -27.737,-25.103c0,-14.527 17.787,-26.321 39.695,-26.321c7.6,0 14.705,1.42 20.743,3.881Z" style="fill:#c3edff;"/><path d="M1056.44,230.964c4.02,-11.375 19.755,-19.872 38.529,-19.872c18.303,0 33.716,8.075 38.204,19.02c5.332,-1.925 11.531,-3.029 18.143,-3.029c19.915,0 36.083,10.009 36.083,22.337c0,4.927 -2.582,9.484 -6.955,13.179c0.303,1.092 0.459,2.202 0.459,3.327c0,10.677 -14.019,20.024 -34.93,25.127c-3.233,9.391 -15.777,16.4 -30.74,16.4c-12.296,0 -22.958,-4.733 -28.162,-11.632c-6.775,3.064 -15.735,4.928 -25.555,4.928c-21.108,0 -38.244,-8.616 -38.244,-19.229c0,-1.025 0.16,-2.031 0.467,-3.013c-16.072,-3.367 -27.737,-13.339 -27.737,-25.103c0,-14.527 17.787,-26.321 39.695,-26.321c7.6,0 14.705,1.42 20.743,3.881Z" style="fill:#c3edff;"/><path d="M512.224,113.534c5.426,-16.983 26.659,-29.668 51.994,-29.668c24.698,0 45.499,12.056 51.555,28.397c7.194,-2.875 15.56,-4.522 24.483,-4.522c26.874,0 48.692,14.943 48.692,33.349c0,7.357 -3.485,14.16 -9.386,19.677c0.409,1.63 0.619,3.288 0.619,4.967c0,15.941 -18.917,29.896 -47.136,37.515c-4.363,14.021 -21.29,24.486 -41.482,24.486c-16.592,0 -30.98,-7.067 -38.003,-17.366c-9.143,4.573 -21.234,7.357 -34.486,7.357c-28.483,0 -51.608,-12.864 -51.608,-28.71c0,-1.53 0.215,-3.032 0.631,-4.498c-21.689,-5.027 -37.431,-19.915 -37.431,-37.48c0,-21.688 24.003,-39.297 53.567,-39.297c10.256,0 19.843,2.119 27.991,5.793Z" style="fill:#c3edff;"/><path d="M512.224,113.534c5.426,-16.983 26.659,-29.668 51.994,-29.668c24.698,0 45.499,12.056 51.555,28.397c7.194,-2.875 15.56,-4.522 24.483,-4.522c26.874,0 48.692,14.943 48.692,33.349c0,7.357 -3.485,14.16 -9.386,19.677c0.409,1.63 0.619,3.288 0.619,4.967c0,15.941 -18.917,29.896 -47.136,37.515c-4.363,14.021 -21.29,24.486 -41.482,24.486c-16.592,0 -30.98,-7.067 -38.003,-17.366c-9.143,4.573 -21.234,7.357 -34.486,7.357c-28.483,0 -51.608,-12.864 -51.608,-28.71c0,-1.53 0.215,-3.032 0.631,-4.498c-21.689,-5.027 -37.431,-19.915 -37.431,-37.48c0,-21.688 24.003,-39.297 53.567,-39.297c10.256,0 19.843,2.119 27.991,5.793Z" style="fill:#c3edff;"/><path d="M1035.69,-33.031c5.095,-16.984 25.036,-29.669 48.829,-29.669c23.195,0 42.729,12.056 48.417,28.397c6.757,-2.874 14.613,-4.522 22.993,-4.522c25.238,0 45.729,14.944 45.729,33.349c0,7.357 -3.273,14.16 -8.815,19.677c0.384,1.631 0.581,3.288 0.581,4.968c0,15.94 -17.766,29.896 -44.267,37.514c-4.097,14.021 -19.994,24.486 -38.957,24.486c-15.583,0 -29.095,-7.066 -35.691,-17.366c-8.586,4.573 -19.941,7.358 -32.386,7.358c-26.75,0 -48.467,-12.865 -48.467,-28.711c0,-1.53 0.202,-3.032 0.592,-4.497c-20.369,-5.028 -35.152,-19.916 -35.152,-37.48c0,-21.689 22.541,-39.298 50.306,-39.298c9.632,0 18.636,2.12 26.288,5.794Z" style="fill:#c3edff;"/><path d="M1035.69,-33.031c5.095,-16.984 25.036,-29.669 48.829,-29.669c23.195,0 42.729,12.056 48.417,28.397c6.757,-2.874 14.613,-4.522 22.993,-4.522c25.238,0 45.729,14.944 45.729,33.349c0,7.357 -3.273,14.16 -8.815,19.677c0.384,1.631 0.581,3.288 0.581,4.968c0,15.94 -17.766,29.896 -44.267,37.514c-4.097,14.021 -19.994,24.486 -38.957,24.486c-15.583,0 -29.095,-7.066 -35.691,-17.366c-8.586,4.573 -19.941,7.358 -32.386,7.358c-26.75,0 -48.467,-12.865 -48.467,-28.711c0,-1.53 0.202,-3.032 0.592,-4.497c-20.369,-5.028 -35.152,-19.916 -35.152,-37.48c0,-21.689 22.541,-39.298 50.306,-39.298c9.632,0 18.636,2.12 26.288,5.794Z" style="fill:#c3edff;"/><path d="M410.257,-17.815c3.695,-10.725 18.155,-18.735 35.408,-18.735c16.82,0 30.985,7.613 35.11,17.932c4.899,-1.815 10.596,-2.855 16.673,-2.855c18.301,0 33.16,9.437 33.16,21.06c0,4.645 -2.374,8.942 -6.392,12.426c0.279,1.029 0.422,2.076 0.422,3.137c0,10.066 -12.884,18.879 -32.101,23.69c-2.971,8.855 -14.499,15.463 -28.249,15.463c-11.3,0 -21.098,-4.462 -25.881,-10.967c-6.226,2.888 -14.461,4.647 -23.485,4.647c-19.398,0 -35.146,-8.124 -35.146,-18.131c0,-0.966 0.147,-1.915 0.43,-2.84c-14.771,-3.175 -25.491,-12.577 -25.491,-23.669c0,-13.696 16.346,-24.816 36.479,-24.816c6.985,0 13.514,1.338 19.063,3.658Z" style="fill:#d9f3fe;"/><path d="M410.257,-17.815c3.695,-10.725 18.155,-18.735 35.408,-18.735c16.82,0 30.985,7.613 35.11,17.932c4.899,-1.815 10.596,-2.855 16.673,-2.855c18.301,0 33.16,9.437 33.16,21.06c0,4.645 -2.374,8.942 -6.392,12.426c0.279,1.029 0.422,2.076 0.422,3.137c0,10.066 -12.884,18.879 -32.101,23.69c-2.971,8.855 -14.499,15.463 -28.249,15.463c-11.3,0 -21.098,-4.462 -25.881,-10.967c-6.226,2.888 -14.461,4.647 -23.485,4.647c-19.398,0 -35.146,-8.124 -35.146,-18.131c0,-0.966 0.147,-1.915 0.43,-2.84c-14.771,-3.175 -25.491,-12.577 -25.491,-23.669c0,-13.696 16.346,-24.816 36.479,-24.816c6.985,0 13.514,1.338 19.063,3.658Z" style="fill:#d9f3fe;"/><path d="M160.717,173.087c3.303,-11.375 16.232,-19.871 31.658,-19.871c15.039,0 27.705,8.075 31.392,19.019c4.381,-1.925 9.475,-3.028 14.908,-3.028c16.363,0 29.649,10.009 29.649,22.336c0,4.928 -2.123,9.484 -5.715,13.18c0.249,1.092 0.376,2.202 0.376,3.327c0,10.676 -11.519,20.023 -28.701,25.126c-2.656,9.391 -12.963,16.401 -25.258,16.401c-10.103,0 -18.864,-4.734 -23.14,-11.632c-5.567,3.063 -12.93,4.928 -20.998,4.928c-17.344,0 -31.425,-8.617 -31.425,-19.23c0,-1.025 0.132,-2.031 0.385,-3.012c-13.207,-3.367 -22.792,-13.339 -22.792,-25.104c0,-14.526 14.615,-26.32 32.617,-26.32c6.245,0 12.082,1.419 17.044,3.88Z" style="fill:#d7eff9;"/><path d="M160.717,173.087c3.303,-11.375 16.232,-19.871 31.658,-19.871c15.039,0 27.705,8.075 31.392,19.019c4.381,-1.925 9.475,-3.028 14.908,-3.028c16.363,0 29.649,10.009 29.649,22.336c0,4.928 -2.123,9.484 -5.715,13.18c0.249,1.092 0.376,2.202 0.376,3.327c0,10.676 -11.519,20.023 -28.701,25.126c-2.656,9.391 -12.963,16.401 -25.258,16.401c-10.103,0 -18.864,-4.734 -23.14,-11.632c-5.567,3.063 -12.93,4.928 -20.998,4.928c-17.344,0 -31.425,-8.617 -31.425,-19.23c0,-1.025 0.132,-2.031 0.385,-3.012c-13.207,-3.367 -22.792,-13.339 -22.792,-25.104c0,-14.526 14.615,-26.32 32.617,-26.32c6.245,0 12.082,1.419 17.044,3.88Z" style="fill:#d7eff9;"/><g><path d="M1280.96,622.122l-10.911,0.642l-9.848,-165.093l-98.152,0l0,170.668l-33.042,0l0,-17.905l-36.508,0l0,-35.722l-18,-18.39l-62.881,0l0,63.359l-34.347,0l0,-21.853l-65.272,0l-84.24,0l0,-74.003l-26.973,-4.298l0.106,-20.282l-16.146,-0.069l0.528,20.908l-40.329,3.124l0,84.078l-272.376,0l-18.854,-167.89l-21.427,163.4l-119.138,0l-23.962,-24.481l0,-39.218l-39.056,-1.019l-0.023,53.478l-135.139,0l0,-26.192l-87.076,0l0,24.25l-27.89,-7.738l0,67.708l1280.34,0.003l0.612,-27.465Z" style="fill:#6892a3;"/><path d="M911.995,649.586l-48.876,0l12.219,-393.952l24.438,0l12.219,393.952Z" style="fill:#6892a3;"/><path d="M910.882,253.213c-19.614,13.317 -46.121,7.86 -59.156,-12.178c-13.035,-20.039 -7.693,-47.12 11.921,-60.437c19.614,-13.317 46.121,-7.86 59.155,12.179c13.035,20.038 7.694,47.119 -11.92,60.436Z" style="fill:#6892a3;"/><path d="M901.151,180.598l0,-54.644l-7.613,0l-8.274,-230.891l-4.611,230l-7.315,0l0,58.353l27.813,-2.818Z" style="fill:#6892a3;"/></g><g><path d="M1280.96,622.122l-10.911,0.642l-9.848,-165.093l-98.152,0l0,170.668l-33.042,0l0,-17.905l-36.508,0l0,-35.722l-18,-18.39l-62.881,0l0,63.359l-34.347,0l0,-21.853l-65.272,0l-84.24,0l0,-74.003l-26.973,-4.298l0.106,-20.282l-16.146,-0.069l0.528,20.908l-40.329,3.124l0,84.078l-272.376,0l-18.854,-167.89l-21.427,163.4l-119.138,0l-23.962,-24.481l0,-39.218l-39.056,-1.019l-0.023,53.478l-135.139,0l0,-26.192l-87.076,0l0,24.25l-27.89,-7.738l0,67.708l1280.34,0.003l0.612,-27.465Z" style="fill:#6892a3;"/><path d="M911.995,649.586l-48.876,0l12.219,-393.952l24.438,0l12.219,393.952Z" style="fill:#6892a3;"/><path d="M910.882,253.213c-19.614,13.317 -46.121,7.86 -59.156,-12.178c-13.035,-20.039 -7.693,-47.12 11.921,-60.437c19.614,-13.317 46.121,-7.86 59.155,12.179c13.035,20.038 7.694,47.119 -11.92,60.436Z" style="fill:#6892a3;"/><path d="M901.151,180.598l0,-54.644l-7.613,0l-8.274,-230.891l-4.611,230l-7.315,0l0,58.353l27.813,-2.818Z" style="fill:#6892a3;"/></g><g><path d="M749.969,552.078l0,-18.189l5.808,0c1.312,0 2.398,0.069 3.088,0.243c0.966,0.24 1.772,0.68 2.455,1.308c0.889,0.811 1.487,1.859 1.928,3.12c0.441,1.262 0.661,2.703 0.661,4.324c0,1.382 -0.149,2.606 -0.448,3.673c-0.299,1.067 -0.683,1.95 -1.151,2.649c-0.467,0.699 -0.979,1.249 -1.535,1.65c-0.556,0.401 -1.254,0.778 -2.04,0.985c-0.785,0.207 -1.662,0.237 -2.682,0.237l-6.084,0Zm3.321,-3.182l2.503,0.022c1.112,0 1.554,-0.034 2.151,-0.353c0.698,-0.374 1.137,-0.886 1.34,-1.324c0.365,-0.783 0.475,-0.941 0.731,-1.917c0.253,-0.968 0.241,-1.221 0.283,-2.59c0.058,-1.902 -0.237,-3.17 -0.808,-4.197c-0.257,-0.462 -0.859,-0.913 -0.859,-0.913c0,0 -0.683,-0.317 -0.719,-0.328c-0.623,-0.196 -0.839,-0.234 -2.165,-0.234l-2.516,0.032l0.059,11.802Z" style="fill:#fff;fill-rule:nonzero;"/><path d="M774.244,529.092l0.027,-3.323l-3.271,0c-0.015,-0.014 -5.438,0.202 -5.444,5.616c-0.008,6.634 0.049,14.258 0.041,14.281c0,0 -0.675,6.431 6.026,6.412c2.646,-0.007 2.655,0 2.655,0l-0.011,-3.465l-2.486,-0.003c0,0 -2.736,0.25 -2.86,-3.041c-0.124,-3.292 0.058,-14.089 0.058,-14.089c0,0 0.237,-2.329 2.913,-2.386c2.675,-0.057 2.352,-0.002 2.352,-0.002Z" style="fill:#fff;"/><rect x="776.887" y="533.941" width="3.358" height="18.137" style="fill:#fff;"/><g><path d="M776.887,529.153l0,-3.337l1.149,0c0.26,0 0.458,0.016 0.595,0.048c0.191,0.044 0.354,0.124 0.489,0.239c0.176,0.149 0.308,0.339 0.395,0.57c0.087,0.232 0.131,0.496 0.131,0.793c0,0.254 -0.03,0.478 -0.089,0.674c-0.059,0.196 -0.135,0.358 -0.228,0.486c-0.092,0.128 -0.194,0.229 -0.304,0.303c-0.11,0.074 -0.242,0.129 -0.398,0.167c-0.155,0.038 -0.334,0.057 -0.536,0.057l-1.204,0Zm0.441,-0.394l0.713,0c0.22,0 0.393,-0.02 0.518,-0.061c0.125,-0.041 0.225,-0.099 0.299,-0.173c0.105,-0.105 0.186,-0.246 0.245,-0.422c0.058,-0.177 0.088,-0.392 0.088,-0.643c0,-0.349 -0.058,-0.618 -0.172,-0.805c-0.115,-0.187 -0.254,-0.313 -0.418,-0.377c-0.118,-0.045 -0.309,-0.068 -0.571,-0.068l-0.702,0l0,2.549Z" style="fill:#fff;fill-rule:nonzero;"/><path d="M779.901,526.287l0,-0.471l0.41,0l0,0.471l-0.41,0Zm0,2.866l0,-2.417l0.41,0l0,2.417l-0.41,0Z" style="fill:#fff;fill-rule:nonzero;"/><path d="M780.96,529.354l0.399,0.059c0.016,0.123 0.063,0.212 0.138,0.268c0.102,0.076 0.241,0.114 0.417,0.114c0.19,0 0.336,-0.038 0.439,-0.114c0.103,-0.076 0.173,-0.182 0.21,-0.318c0.021,-0.084 0.031,-0.259 0.029,-0.526c-0.179,0.211 -0.402,0.316 -0.669,0.316c-0.332,0 -0.589,-0.12 -0.772,-0.36c-0.182,-0.239 -0.273,-0.527 -0.273,-0.862c0,-0.231 0.042,-0.444 0.125,-0.639c0.084,-0.195 0.205,-0.345 0.363,-0.452c0.159,-0.106 0.345,-0.159 0.559,-0.159c0.286,0 0.521,0.115 0.706,0.346l0,-0.291l0.378,0l0,2.089c0,0.377 -0.039,0.643 -0.115,0.8c-0.077,0.158 -0.198,0.282 -0.364,0.373c-0.167,0.091 -0.371,0.136 -0.614,0.136c-0.288,0 -0.521,-0.065 -0.699,-0.194c-0.177,-0.13 -0.263,-0.326 -0.257,-0.586Zm0.339,-1.453c0,0.317 0.063,0.549 0.189,0.694c0.126,0.146 0.284,0.219 0.474,0.219c0.188,0 0.346,-0.072 0.473,-0.217c0.128,-0.145 0.191,-0.373 0.191,-0.682c0,-0.296 -0.065,-0.519 -0.196,-0.669c-0.132,-0.151 -0.29,-0.226 -0.475,-0.226c-0.182,0 -0.337,0.074 -0.465,0.222c-0.127,0.148 -0.191,0.368 -0.191,0.659Z" style="fill:#fff;fill-rule:nonzero;"/><path d="M783.563,526.287l0,-0.471l0.41,0l0,0.471l-0.41,0Zm0,2.866l0,-2.417l0.41,0l0,2.417l-0.41,0Z" style="fill:#fff;fill-rule:nonzero;"/><path d="M785.558,528.787l0.059,0.362c-0.115,0.024 -0.218,0.036 -0.309,0.036c-0.149,0 -0.264,-0.023 -0.346,-0.071c-0.082,-0.047 -0.14,-0.108 -0.173,-0.185c-0.034,-0.077 -0.05,-0.238 -0.05,-0.484l0,-1.391l-0.301,0l0,-0.318l0.301,0l0,-0.599l0.407,-0.246l0,0.845l0.412,0l0,0.318l-0.412,0l0,1.414c0,0.117 0.007,0.192 0.022,0.225c0.014,0.034 0.038,0.06 0.07,0.08c0.033,0.02 0.08,0.03 0.14,0.03c0.046,0 0.106,-0.006 0.18,-0.016Z" style="fill:#fff;fill-rule:nonzero;"/><path d="M787.738,528.855c-0.152,0.129 -0.298,0.22 -0.438,0.273c-0.141,0.053 -0.291,0.08 -0.452,0.08c-0.266,0 -0.47,-0.065 -0.612,-0.195c-0.143,-0.13 -0.214,-0.295 -0.214,-0.497c0,-0.119 0.027,-0.227 0.08,-0.325c0.054,-0.097 0.125,-0.176 0.212,-0.235c0.087,-0.059 0.186,-0.104 0.295,-0.135c0.08,-0.021 0.202,-0.041 0.364,-0.061c0.331,-0.039 0.575,-0.086 0.731,-0.141c0.001,-0.056 0.002,-0.092 0.002,-0.107c0,-0.167 -0.039,-0.285 -0.116,-0.353c-0.105,-0.092 -0.26,-0.139 -0.467,-0.139c-0.192,0 -0.335,0.034 -0.426,0.102c-0.092,0.067 -0.16,0.187 -0.204,0.358l-0.401,-0.055c0.037,-0.171 0.097,-0.31 0.18,-0.415c0.084,-0.105 0.204,-0.187 0.362,-0.243c0.158,-0.057 0.341,-0.086 0.549,-0.086c0.206,0 0.374,0.024 0.503,0.073c0.129,0.048 0.223,0.11 0.284,0.183c0.061,0.074 0.103,0.167 0.128,0.279c0.013,0.07 0.02,0.196 0.02,0.378l0,0.546c0,0.381 0.009,0.622 0.026,0.723c0.018,0.101 0.052,0.198 0.104,0.29l-0.428,0c-0.043,-0.085 -0.07,-0.184 -0.082,-0.298Zm-0.034,-0.915c-0.149,0.061 -0.372,0.112 -0.669,0.155c-0.169,0.024 -0.288,0.051 -0.358,0.082c-0.07,0.03 -0.123,0.074 -0.161,0.133c-0.038,0.058 -0.057,0.123 -0.057,0.194c0,0.11 0.041,0.201 0.124,0.274c0.082,0.072 0.203,0.109 0.363,0.109c0.158,0 0.298,-0.035 0.421,-0.104c0.123,-0.069 0.213,-0.163 0.271,-0.283c0.044,-0.093 0.066,-0.229 0.066,-0.41l0,-0.15Z" style="fill:#fff;fill-rule:nonzero;"/><rect x="788.677" y="525.816" width="0.41" height="3.337" style="fill:#fff;"/><path d="M793.282,527.983l0.442,0.112c-0.093,0.362 -0.259,0.639 -0.5,0.829c-0.24,0.191 -0.534,0.286 -0.882,0.286c-0.36,0 -0.652,-0.073 -0.877,-0.22c-0.226,-0.146 -0.397,-0.358 -0.515,-0.636c-0.117,-0.278 -0.176,-0.576 -0.176,-0.894c0,-0.348 0.066,-0.651 0.199,-0.91c0.133,-0.259 0.322,-0.455 0.567,-0.589c0.245,-0.135 0.515,-0.202 0.809,-0.202c0.334,0 0.615,0.085 0.842,0.255c0.228,0.17 0.386,0.409 0.476,0.717l-0.435,0.103c-0.077,-0.243 -0.19,-0.42 -0.337,-0.531c-0.147,-0.111 -0.332,-0.166 -0.555,-0.166c-0.257,0 -0.471,0.062 -0.643,0.184c-0.172,0.123 -0.294,0.288 -0.363,0.496c-0.07,0.207 -0.105,0.42 -0.105,0.64c0,0.284 0.041,0.532 0.124,0.744c0.083,0.211 0.211,0.369 0.386,0.474c0.174,0.105 0.363,0.157 0.567,0.157c0.247,0 0.456,-0.071 0.628,-0.214c0.171,-0.142 0.287,-0.354 0.348,-0.635Z" style="fill:#fff;fill-rule:nonzero;"/><path d="M795.558,528.855c-0.152,0.129 -0.298,0.22 -0.438,0.273c-0.141,0.053 -0.291,0.08 -0.452,0.08c-0.266,0 -0.47,-0.065 -0.613,-0.195c-0.142,-0.13 -0.214,-0.295 -0.214,-0.497c0,-0.119 0.027,-0.227 0.081,-0.325c0.054,-0.097 0.125,-0.176 0.212,-0.235c0.087,-0.059 0.185,-0.104 0.295,-0.135c0.08,-0.021 0.202,-0.041 0.364,-0.061c0.331,-0.039 0.574,-0.086 0.731,-0.141c0.001,-0.056 0.002,-0.092 0.002,-0.107c0,-0.167 -0.039,-0.285 -0.116,-0.353c-0.105,-0.092 -0.26,-0.139 -0.467,-0.139c-0.193,0 -0.335,0.034 -0.427,0.102c-0.091,0.067 -0.159,0.187 -0.203,0.358l-0.401,-0.055c0.036,-0.171 0.096,-0.31 0.18,-0.415c0.083,-0.105 0.204,-0.187 0.362,-0.243c0.157,-0.057 0.34,-0.086 0.548,-0.086c0.207,0 0.374,0.024 0.503,0.073c0.129,0.048 0.224,0.11 0.285,0.183c0.061,0.074 0.103,0.167 0.127,0.279c0.014,0.07 0.021,0.196 0.021,0.378l0,0.546c0,0.381 0.009,0.622 0.026,0.723c0.017,0.101 0.052,0.198 0.104,0.29l-0.428,0c-0.043,-0.085 -0.07,-0.184 -0.082,-0.298Zm-0.034,-0.915c-0.149,0.061 -0.372,0.112 -0.67,0.155c-0.168,0.024 -0.287,0.051 -0.357,0.082c-0.07,0.03 -0.124,0.074 -0.162,0.133c-0.038,0.058 -0.057,0.123 -0.057,0.194c0,0.11 0.042,0.201 0.124,0.274c0.083,0.072 0.204,0.109 0.364,0.109c0.157,0 0.298,-0.035 0.421,-0.104c0.123,-0.069 0.213,-0.163 0.271,-0.283c0.044,-0.093 0.066,-0.229 0.066,-0.41l0,-0.15Z" style="fill:#fff;fill-rule:nonzero;"/><path d="M796.367,529.153l0,-2.417l0.369,0l0,0.366c0.094,-0.171 0.181,-0.284 0.26,-0.339c0.08,-0.055 0.167,-0.082 0.263,-0.082c0.138,0 0.279,0.044 0.421,0.132l-0.141,0.38c-0.1,-0.059 -0.2,-0.089 -0.3,-0.089c-0.09,0 -0.17,0.027 -0.242,0.081c-0.071,0.054 -0.122,0.129 -0.152,0.224c-0.046,0.146 -0.069,0.305 -0.069,0.479l0,1.265l-0.409,0Z" style="fill:#fff;fill-rule:nonzero;"/><path d="M799.814,528.375l0.423,0.052c-0.067,0.247 -0.19,0.439 -0.371,0.576c-0.18,0.137 -0.411,0.205 -0.692,0.205c-0.353,0 -0.634,-0.109 -0.841,-0.327c-0.207,-0.218 -0.311,-0.523 -0.311,-0.916c0,-0.407 0.105,-0.722 0.314,-0.947c0.21,-0.225 0.482,-0.337 0.815,-0.337c0.324,0 0.588,0.11 0.793,0.33c0.204,0.22 0.307,0.53 0.307,0.929c0,0.024 -0.001,0.061 -0.002,0.109l-1.803,0c0.015,0.266 0.09,0.469 0.225,0.61c0.135,0.141 0.304,0.212 0.505,0.212c0.151,0 0.279,-0.04 0.385,-0.118c0.106,-0.079 0.191,-0.205 0.253,-0.378Zm-1.345,-0.663l1.349,0c-0.018,-0.203 -0.07,-0.356 -0.154,-0.457c-0.131,-0.158 -0.3,-0.237 -0.508,-0.237c-0.188,0 -0.346,0.063 -0.475,0.189c-0.128,0.126 -0.199,0.294 -0.212,0.505Z" style="fill:#fff;fill-rule:nonzero;"/><path d="M802.306,528.375l0.423,0.052c-0.067,0.247 -0.19,0.439 -0.371,0.576c-0.181,0.137 -0.411,0.205 -0.692,0.205c-0.353,0 -0.634,-0.109 -0.841,-0.327c-0.207,-0.218 -0.311,-0.523 -0.311,-0.916c0,-0.407 0.105,-0.722 0.314,-0.947c0.21,-0.225 0.481,-0.337 0.815,-0.337c0.323,0 0.588,0.11 0.792,0.33c0.205,0.22 0.308,0.53 0.308,0.929c0,0.024 -0.001,0.061 -0.003,0.109l-1.802,0c0.015,0.266 0.09,0.469 0.225,0.61c0.135,0.141 0.303,0.212 0.505,0.212c0.151,0 0.279,-0.04 0.385,-0.118c0.106,-0.079 0.19,-0.205 0.253,-0.378Zm-1.346,-0.663l1.35,0c-0.018,-0.203 -0.07,-0.356 -0.155,-0.457c-0.13,-0.158 -0.299,-0.237 -0.507,-0.237c-0.188,0 -0.347,0.063 -0.475,0.189c-0.128,0.126 -0.199,0.294 -0.213,0.505Z" style="fill:#fff;fill-rule:nonzero;"/><path d="M803.105,529.153l0,-2.417l0.368,0l0,0.366c0.094,-0.171 0.181,-0.284 0.261,-0.339c0.08,-0.055 0.167,-0.082 0.263,-0.082c0.138,0 0.278,0.044 0.421,0.132l-0.141,0.38c-0.1,-0.059 -0.2,-0.089 -0.301,-0.089c-0.089,0 -0.17,0.027 -0.241,0.081c-0.071,0.054 -0.122,0.129 -0.152,0.224c-0.046,0.146 -0.069,0.305 -0.069,0.479l0,1.265l-0.409,0Z" style="fill:#fff;fill-rule:nonzero;"/><rect x="806.151" y="525.816" width="0.442" height="3.337" style="fill:#fff;"/><path d="M807.42,529.153l0,-2.417l0.369,0l0,0.343c0.177,-0.265 0.434,-0.398 0.769,-0.398c0.146,0 0.28,0.026 0.402,0.079c0.122,0.052 0.213,0.121 0.274,0.206c0.061,0.085 0.103,0.186 0.128,0.302c0.015,0.076 0.022,0.209 0.022,0.399l0,1.486l-0.409,0l0,-1.47c0,-0.167 -0.016,-0.292 -0.048,-0.375c-0.032,-0.083 -0.089,-0.148 -0.17,-0.198c-0.081,-0.049 -0.176,-0.074 -0.285,-0.074c-0.175,0 -0.326,0.056 -0.452,0.166c-0.127,0.111 -0.19,0.321 -0.19,0.631l0,1.32l-0.41,0Z" style="fill:#fff;fill-rule:nonzero;"/><path d="M809.781,528.432l0.406,-0.064c0.022,0.162 0.086,0.287 0.19,0.373c0.104,0.087 0.249,0.13 0.436,0.13c0.188,0 0.327,-0.038 0.419,-0.115c0.091,-0.077 0.136,-0.167 0.136,-0.27c0,-0.092 -0.04,-0.165 -0.121,-0.218c-0.056,-0.037 -0.195,-0.083 -0.418,-0.139c-0.301,-0.076 -0.509,-0.142 -0.625,-0.197c-0.116,-0.055 -0.204,-0.132 -0.264,-0.23c-0.06,-0.098 -0.09,-0.206 -0.09,-0.324c0,-0.108 0.024,-0.208 0.074,-0.3c0.049,-0.091 0.116,-0.168 0.201,-0.228c0.064,-0.048 0.151,-0.087 0.261,-0.12c0.11,-0.033 0.228,-0.049 0.354,-0.049c0.19,0 0.356,0.027 0.499,0.082c0.144,0.055 0.25,0.129 0.318,0.222c0.068,0.093 0.115,0.218 0.141,0.374l-0.401,0.055c-0.018,-0.124 -0.07,-0.221 -0.158,-0.291c-0.087,-0.07 -0.21,-0.105 -0.37,-0.105c-0.188,0 -0.322,0.031 -0.402,0.093c-0.081,0.063 -0.121,0.135 -0.121,0.219c0,0.053 0.017,0.101 0.05,0.143c0.033,0.044 0.086,0.081 0.157,0.11c0.041,0.015 0.162,0.05 0.362,0.104c0.29,0.078 0.492,0.141 0.607,0.19c0.114,0.05 0.204,0.121 0.269,0.215c0.066,0.094 0.098,0.211 0.098,0.351c0,0.137 -0.04,0.265 -0.119,0.386c-0.08,0.12 -0.195,0.214 -0.345,0.28c-0.15,0.066 -0.32,0.099 -0.51,0.099c-0.314,0 -0.554,-0.065 -0.718,-0.196c-0.165,-0.13 -0.27,-0.324 -0.316,-0.58Z" style="fill:#fff;fill-rule:nonzero;"/><path d="M813.171,528.787l0.059,0.362c-0.115,0.024 -0.218,0.036 -0.309,0.036c-0.149,0 -0.265,-0.023 -0.347,-0.071c-0.082,-0.047 -0.139,-0.108 -0.173,-0.185c-0.033,-0.077 -0.05,-0.238 -0.05,-0.484l0,-1.391l-0.3,0l0,-0.318l0.3,0l0,-0.599l0.408,-0.246l0,0.845l0.412,0l0,0.318l-0.412,0l0,1.414c0,0.117 0.007,0.192 0.021,0.225c0.015,0.034 0.038,0.06 0.071,0.08c0.033,0.02 0.079,0.03 0.14,0.03c0.046,0 0.105,-0.006 0.18,-0.016Z" style="fill:#fff;fill-rule:nonzero;"/><path d="M813.809,526.287l0,-0.471l0.41,0l0,0.471l-0.41,0Zm0,2.866l0,-2.417l0.41,0l0,2.417l-0.41,0Z" style="fill:#fff;fill-rule:nonzero;"/><path d="M815.804,528.787l0.059,0.362c-0.115,0.024 -0.218,0.036 -0.309,0.036c-0.149,0 -0.264,-0.023 -0.346,-0.071c-0.082,-0.047 -0.14,-0.108 -0.173,-0.185c-0.034,-0.077 -0.05,-0.238 -0.05,-0.484l0,-1.391l-0.301,0l0,-0.318l0.301,0l0,-0.599l0.407,-0.246l0,0.845l0.412,0l0,0.318l-0.412,0l0,1.414c0,0.117 0.007,0.192 0.022,0.225c0.014,0.034 0.038,0.06 0.07,0.08c0.033,0.02 0.08,0.03 0.14,0.03c0.046,0 0.106,-0.006 0.18,-0.016Z" style="fill:#fff;fill-rule:nonzero;"/><path d="M817.957,529.153l0,-0.355c-0.188,0.273 -0.444,0.41 -0.767,0.41c-0.143,0 -0.276,-0.028 -0.4,-0.082c-0.123,-0.055 -0.215,-0.123 -0.275,-0.206c-0.06,-0.083 -0.102,-0.184 -0.126,-0.304c-0.017,-0.08 -0.025,-0.208 -0.025,-0.382l0,-1.498l0.409,0l0,1.34c0,0.214 0.009,0.359 0.025,0.433c0.026,0.108 0.081,0.192 0.164,0.254c0.084,0.061 0.187,0.092 0.31,0.092c0.123,0 0.238,-0.032 0.346,-0.094c0.108,-0.064 0.184,-0.149 0.229,-0.258c0.044,-0.108 0.067,-0.266 0.067,-0.472l0,-1.295l0.41,0l0,2.417l-0.367,0Z" style="fill:#fff;fill-rule:nonzero;"/><path d="M819.927,528.787l0.059,0.362c-0.115,0.024 -0.218,0.036 -0.309,0.036c-0.149,0 -0.264,-0.023 -0.346,-0.071c-0.082,-0.047 -0.14,-0.108 -0.173,-0.185c-0.033,-0.077 -0.05,-0.238 -0.05,-0.484l0,-1.391l-0.301,0l0,-0.318l0.301,0l0,-0.599l0.407,-0.246l0,0.845l0.412,0l0,0.318l-0.412,0l0,1.414c0,0.117 0.007,0.192 0.022,0.225c0.014,0.034 0.038,0.06 0.07,0.08c0.033,0.02 0.08,0.03 0.14,0.03c0.046,0 0.106,-0.006 0.18,-0.016Z" style="fill:#fff;fill-rule:nonzero;"/><path d="M822.117,528.375l0.424,0.052c-0.067,0.247 -0.191,0.439 -0.372,0.576c-0.18,0.137 -0.411,0.205 -0.692,0.205c-0.353,0 -0.633,-0.109 -0.841,-0.327c-0.207,-0.218 -0.31,-0.523 -0.31,-0.916c0,-0.407 0.104,-0.722 0.314,-0.947c0.209,-0.225 0.481,-0.337 0.815,-0.337c0.323,0 0.587,0.11 0.792,0.33c0.205,0.22 0.307,0.53 0.307,0.929c0,0.024 -0.001,0.061 -0.002,0.109l-1.803,0c0.015,0.266 0.09,0.469 0.225,0.61c0.135,0.141 0.304,0.212 0.506,0.212c0.15,0 0.278,-0.04 0.384,-0.118c0.107,-0.079 0.191,-0.205 0.253,-0.378Zm-1.345,-0.663l1.35,0c-0.019,-0.203 -0.07,-0.356 -0.155,-0.457c-0.131,-0.158 -0.3,-0.237 -0.508,-0.237c-0.188,0 -0.346,0.063 -0.474,0.189c-0.129,0.126 -0.2,0.294 -0.213,0.505Z" style="fill:#fff;fill-rule:nonzero;"/></g></g><g><path d="M749.969,552.078l0,-18.189l5.808,0c1.312,0 2.398,0.069 3.088,0.243c0.966,0.24 1.772,0.68 2.455,1.308c0.889,0.811 1.487,1.859 1.928,3.12c0.441,1.262 0.661,2.703 0.661,4.324c0,1.382 -0.149,2.606 -0.448,3.673c-0.299,1.067 -0.683,1.95 -1.151,2.649c-0.467,0.699 -0.979,1.249 -1.535,1.65c-0.556,0.401 -1.254,0.778 -2.04,0.985c-0.785,0.207 -1.662,0.237 -2.682,0.237l-6.084,0Zm3.321,-3.182l2.503,0.022c1.112,0 1.554,-0.034 2.151,-0.353c0.698,-0.374 1.137,-0.886 1.34,-1.324c0.365,-0.783 0.475,-0.941 0.731,-1.917c0.253,-0.968 0.241,-1.221 0.283,-2.59c0.058,-1.902 -0.237,-3.17 -0.808,-4.197c-0.257,-0.462 -0.859,-0.913 -0.859,-0.913c0,0 -0.683,-0.317 -0.719,-0.328c-0.623,-0.196 -0.839,-0.234 -2.165,-0.234l-2.516,0.032l0.059,11.802Z" style="fill:#fff;fill-rule:nonzero;"/><path d="M774.244,529.092l0.027,-3.323l-3.271,0c-0.015,-0.014 -5.438,0.202 -5.444,5.616c-0.008,6.634 0.049,14.258 0.041,14.281c0,0 -0.675,6.431 6.026,6.412c2.646,-0.007 2.655,0 2.655,0l-0.011,-3.465l-2.486,-0.003c0,0 -2.736,0.25 -2.86,-3.041c-0.124,-3.292 0.058,-14.089 0.058,-14.089c0,0 0.237,-2.329 2.913,-2.386c2.675,-0.057 2.352,-0.002 2.352,-0.002Z" style="fill:#fff;"/><rect x="776.887" y="533.941" width="3.358" height="18.137" style="fill:#fff;"/><g><path d="M776.887,529.153l0,-3.337l1.149,0c0.26,0 0.458,0.016 0.595,0.048c0.191,0.044 0.354,0.124 0.489,0.239c0.176,0.149 0.308,0.339 0.395,0.57c0.087,0.232 0.131,0.496 0.131,0.793c0,0.254 -0.03,0.478 -0.089,0.674c-0.059,0.196 -0.135,0.358 -0.228,0.486c-0.092,0.128 -0.194,0.229 -0.304,0.303c-0.11,0.074 -0.242,0.129 -0.398,0.167c-0.155,0.038 -0.334,0.057 -0.536,0.057l-1.204,0Zm0.441,-0.394l0.713,0c0.22,0 0.393,-0.02 0.518,-0.061c0.125,-0.041 0.225,-0.099 0.299,-0.173c0.105,-0.105 0.186,-0.246 0.245,-0.422c0.058,-0.177 0.088,-0.392 0.088,-0.643c0,-0.349 -0.058,-0.618 -0.172,-0.805c-0.115,-0.187 -0.254,-0.313 -0.418,-0.377c-0.118,-0.045 -0.309,-0.068 -0.571,-0.068l-0.702,0l0,2.549Z" style="fill:#fff;fill-rule:nonzero;"/><path d="M779.901,526.287l0,-0.471l0.41,0l0,0.471l-0.41,0Zm0,2.866l0,-2.417l0.41,0l0,2.417l-0.41,0Z" style="fill:#fff;fill-rule:nonzero;"/><path d="M780.96,529.354l0.399,0.059c0.016,0.123 0.063,0.212 0.138,0.268c0.102,0.076 0.241,0.114 0.417,0.114c0.19,0 0.336,-0.038 0.439,-0.114c0.103,-0.076 0.173,-0.182 0.21,-0.318c0.021,-0.084 0.031,-0.259 0.029,-0.526c-0.179,0.211 -0.402,0.316 -0.669,0.316c-0.332,0 -0.589,-0.12 -0.772,-0.36c-0.182,-0.239 -0.273,-0.527 -0.273,-0.862c0,-0.231 0.042,-0.444 0.125,-0.639c0.084,-0.195 0.205,-0.345 0.363,-0.452c0.159,-0.106 0.345,-0.159 0.559,-0.159c0.286,0 0.521,0.115 0.706,0.346l0,-0.291l0.378,0l0,2.089c0,0.377 -0.039,0.643 -0.115,0.8c-0.077,0.158 -0.198,0.282 -0.364,0.373c-0.167,0.091 -0.371,0.136 -0.614,0.136c-0.288,0 -0.521,-0.065 -0.699,-0.194c-0.177,-0.13 -0.263,-0.326 -0.257,-0.586Zm0.339,-1.453c0,0.317 0.063,0.549 0.189,0.694c0.126,0.146 0.284,0.219 0.474,0.219c0.188,0 0.346,-0.072 0.473,-0.217c0.128,-0.145 0.191,-0.373 0.191,-0.682c0,-0.296 -0.065,-0.519 -0.196,-0.669c-0.132,-0.151 -0.29,-0.226 -0.475,-0.226c-0.182,0 -0.337,0.074 -0.465,0.222c-0.127,0.148 -0.191,0.368 -0.191,0.659Z" style="fill:#fff;fill-rule:nonzero;"/><path d="M783.563,526.287l0,-0.471l0.41,0l0,0.471l-0.41,0Zm0,2.866l0,-2.417l0.41,0l0,2.417l-0.41,0Z" style="fill:#fff;fill-rule:nonzero;"/><path d="M785.558,528.787l0.059,0.362c-0.115,0.024 -0.218,0.036 -0.309,0.036c-0.149,0 -0.264,-0.023 -0.346,-0.071c-0.082,-0.047 -0.14,-0.108 -0.173,-0.185c-0.034,-0.077 -0.05,-0.238 -0.05,-0.484l0,-1.391l-0.301,0l0,-0.318l0.301,0l0,-0.599l0.407,-0.246l0,0.845l0.412,0l0,0.318l-0.412,0l0,1.414c0,0.117 0.007,0.192 0.022,0.225c0.014,0.034 0.038,0.06 0.07,0.08c0.033,0.02 0.08,0.03 0.14,0.03c0.046,0 0.106,-0.006 0.18,-0.016Z" style="fill:#fff;fill-rule:nonzero;"/><path d="M787.738,528.855c-0.152,0.129 -0.298,0.22 -0.438,0.273c-0.141,0.053 -0.291,0.08 -0.452,0.08c-0.266,0 -0.47,-0.065 -0.612,-0.195c-0.143,-0.13 -0.214,-0.295 -0.214,-0.497c0,-0.119 0.027,-0.227 0.08,-0.325c0.054,-0.097 0.125,-0.176 0.212,-0.235c0.087,-0.059 0.186,-0.104 0.295,-0.135c0.08,-0.021 0.202,-0.041 0.364,-0.061c0.331,-0.039 0.575,-0.086 0.731,-0.141c0.001,-0.056 0.002,-0.092 0.002,-0.107c0,-0.167 -0.039,-0.285 -0.116,-0.353c-0.105,-0.092 -0.26,-0.139 -0.467,-0.139c-0.192,0 -0.335,0.034 -0.426,0.102c-0.092,0.067 -0.16,0.187 -0.204,0.358l-0.401,-0.055c0.037,-0.171 0.097,-0.31 0.18,-0.415c0.084,-0.105 0.204,-0.187 0.362,-0.243c0.158,-0.057 0.341,-0.086 0.549,-0.086c0.206,0 0.374,0.024 0.503,0.073c0.129,0.048 0.223,0.11 0.284,0.183c0.061,0.074 0.103,0.167 0.128,0.279c0.013,0.07 0.02,0.196 0.02,0.378l0,0.546c0,0.381 0.009,0.622 0.026,0.723c0.018,0.101 0.052,0.198 0.104,0.29l-0.428,0c-0.043,-0.085 -0.07,-0.184 -0.082,-0.298Zm-0.034,-0.915c-0.149,0.061 -0.372,0.112 -0.669,0.155c-0.169,0.024 -0.288,0.051 -0.358,0.082c-0.07,0.03 -0.123,0.074 -0.161,0.133c-0.038,0.058 -0.057,0.123 -0.057,0.194c0,0.11 0.041,0.201 0.124,0.274c0.082,0.072 0.203,0.109 0.363,0.109c0.158,0 0.298,-0.035 0.421,-0.104c0.123,-0.069 0.213,-0.163 0.271,-0.283c0.044,-0.093 0.066,-0.229 0.066,-0.41l0,-0.15Z" style="fill:#fff;fill-rule:nonzero;"/><rect x="788.677" y="525.816" width="0.41" height="3.337" style="fill:#fff;"/><path d="M793.282,527.983l0.442,0.112c-0.093,0.362 -0.259,0.639 -0.5,0.829c-0.24,0.191 -0.534,0.286 -0.882,0.286c-0.36,0 -0.652,-0.073 -0.877,-0.22c-0.226,-0.146 -0.397,-0.358 -0.515,-0.636c-0.117,-0.278 -0.176,-0.576 -0.176,-0.894c0,-0.348 0.066,-0.651 0.199,-0.91c0.133,-0.259 0.322,-0.455 0.567,-0.589c0.245,-0.135 0.515,-0.202 0.809,-0.202c0.334,0 0.615,0.085 0.842,0.255c0.228,0.17 0.386,0.409 0.476,0.717l-0.435,0.103c-0.077,-0.243 -0.19,-0.42 -0.337,-0.531c-0.147,-0.111 -0.332,-0.166 -0.555,-0.166c-0.257,0 -0.471,0.062 -0.643,0.184c-0.172,0.123 -0.294,0.288 -0.363,0.496c-0.07,0.207 -0.105,0.42 -0.105,0.64c0,0.284 0.041,0.532 0.124,0.744c0.083,0.211 0.211,0.369 0.386,0.474c0.174,0.105 0.363,0.157 0.567,0.157c0.247,0 0.456,-0.071 0.628,-0.214c0.171,-0.142 0.287,-0.354 0.348,-0.635Z" style="fill:#fff;fill-rule:nonzero;"/><path d="M795.558,528.855c-0.152,0.129 -0.298,0.22 -0.438,0.273c-0.141,0.053 -0.291,0.08 -0.452,0.08c-0.266,0 -0.47,-0.065 -0.613,-0.195c-0.142,-0.13 -0.214,-0.295 -0.214,-0.497c0,-0.119 0.027,-0.227 0.081,-0.325c0.054,-0.097 0.125,-0.176 0.212,-0.235c0.087,-0.059 0.185,-0.104 0.295,-0.135c0.08,-0.021 0.202,-0.041 0.364,-0.061c0.331,-0.039 0.574,-0.086 0.731,-0.141c0.001,-0.056 0.002,-0.092 0.002,-0.107c0,-0.167 -0.039,-0.285 -0.116,-0.353c-0.105,-0.092 -0.26,-0.139 -0.467,-0.139c-0.193,0 -0.335,0.034 -0.427,0.102c-0.091,0.067 -0.159,0.187 -0.203,0.358l-0.401,-0.055c0.036,-0.171 0.096,-0.31 0.18,-0.415c0.083,-0.105 0.204,-0.187 0.362,-0.243c0.157,-0.057 0.34,-0.086 0.548,-0.086c0.207,0 0.374,0.024 0.503,0.073c0.129,0.048 0.224,0.11 0.285,0.183c0.061,0.074 0.103,0.167 0.127,0.279c0.014,0.07 0.021,0.196 0.021,0.378l0,0.546c0,0.381 0.009,0.622 0.026,0.723c0.017,0.101 0.052,0.198 0.104,0.29l-0.428,0c-0.043,-0.085 -0.07,-0.184 -0.082,-0.298Zm-0.034,-0.915c-0.149,0.061 -0.372,0.112 -0.67,0.155c-0.168,0.024 -0.287,0.051 -0.357,0.082c-0.07,0.03 -0.124,0.074 -0.162,0.133c-0.038,0.058 -0.057,0.123 -0.057,0.194c0,0.11 0.042,0.201 0.124,0.274c0.083,0.072 0.204,0.109 0.364,0.109c0.157,0 0.298,-0.035 0.421,-0.104c0.123,-0.069 0.213,-0.163 0.271,-0.283c0.044,-0.093 0.066,-0.229 0.066,-0.41l0,-0.15Z" style="fill:#fff;fill-rule:nonzero;"/><path d="M796.367,529.153l0,-2.417l0.369,0l0,0.366c0.094,-0.171 0.181,-0.284 0.26,-0.339c0.08,-0.055 0.167,-0.082 0.263,-0.082c0.138,0 0.279,0.044 0.421,0.132l-0.141,0.38c-0.1,-0.059 -0.2,-0.089 -0.3,-0.089c-0.09,0 -0.17,0.027 -0.242,0.081c-0.071,0.054 -0.122,0.129 -0.152,0.224c-0.046,0.146 -0.069,0.305 -0.069,0.479l0,1.265l-0.409,0Z" style="fill:#fff;fill-rule:nonzero;"/><path d="M799.814,528.375l0.423,0.052c-0.067,0.247 -0.19,0.439 -0.371,0.576c-0.18,0.137 -0.411,0.205 -0.692,0.205c-0.353,0 -0.634,-0.109 -0.841,-0.327c-0.207,-0.218 -0.311,-0.523 -0.311,-0.916c0,-0.407 0.105,-0.722 0.314,-0.947c0.21,-0.225 0.482,-0.337 0.815,-0.337c0.324,0 0.588,0.11 0.793,0.33c0.204,0.22 0.307,0.53 0.307,0.929c0,0.024 -0.001,0.061 -0.002,0.109l-1.803,0c0.015,0.266 0.09,0.469 0.225,0.61c0.135,0.141 0.304,0.212 0.505,0.212c0.151,0 0.279,-0.04 0.385,-0.118c0.106,-0.079 0.191,-0.205 0.253,-0.378Zm-1.345,-0.663l1.349,0c-0.018,-0.203 -0.07,-0.356 -0.154,-0.457c-0.131,-0.158 -0.3,-0.237 -0.508,-0.237c-0.188,0 -0.346,0.063 -0.475,0.189c-0.128,0.126 -0.199,0.294 -0.212,0.505Z" style="fill:#fff;fill-rule:nonzero;"/><path d="M802.306,528.375l0.423,0.052c-0.067,0.247 -0.19,0.439 -0.371,0.576c-0.181,0.137 -0.411,0.205 -0.692,0.205c-0.353,0 -0.634,-0.109 -0.841,-0.327c-0.207,-0.218 -0.311,-0.523 -0.311,-0.916c0,-0.407 0.105,-0.722 0.314,-0.947c0.21,-0.225 0.481,-0.337 0.815,-0.337c0.323,0 0.588,0.11 0.792,0.33c0.205,0.22 0.308,0.53 0.308,0.929c0,0.024 -0.001,0.061 -0.003,0.109l-1.802,0c0.015,0.266 0.09,0.469 0.225,0.61c0.135,0.141 0.303,0.212 0.505,0.212c0.151,0 0.279,-0.04 0.385,-0.118c0.106,-0.079 0.19,-0.205 0.253,-0.378Zm-1.346,-0.663l1.35,0c-0.018,-0.203 -0.07,-0.356 -0.155,-0.457c-0.13,-0.158 -0.299,-0.237 -0.507,-0.237c-0.188,0 -0.347,0.063 -0.475,0.189c-0.128,0.126 -0.199,0.294 -0.213,0.505Z" style="fill:#fff;fill-rule:nonzero;"/><path d="M803.105,529.153l0,-2.417l0.368,0l0,0.366c0.094,-0.171 0.181,-0.284 0.261,-0.339c0.08,-0.055 0.167,-0.082 0.263,-0.082c0.138,0 0.278,0.044 0.421,0.132l-0.141,0.38c-0.1,-0.059 -0.2,-0.089 -0.301,-0.089c-0.089,0 -0.17,0.027 -0.241,0.081c-0.071,0.054 -0.122,0.129 -0.152,0.224c-0.046,0.146 -0.069,0.305 -0.069,0.479l0,1.265l-0.409,0Z" style="fill:#fff;fill-rule:nonzero;"/><rect x="806.151" y="525.816" width="0.442" height="3.337" style="fill:#fff;"/><path d="M807.42,529.153l0,-2.417l0.369,0l0,0.343c0.177,-0.265 0.434,-0.398 0.769,-0.398c0.146,0 0.28,0.026 0.402,0.079c0.122,0.052 0.213,0.121 0.274,0.206c0.061,0.085 0.103,0.186 0.128,0.302c0.015,0.076 0.022,0.209 0.022,0.399l0,1.486l-0.409,0l0,-1.47c0,-0.167 -0.016,-0.292 -0.048,-0.375c-0.032,-0.083 -0.089,-0.148 -0.17,-0.198c-0.081,-0.049 -0.176,-0.074 -0.285,-0.074c-0.175,0 -0.326,0.056 -0.452,0.166c-0.127,0.111 -0.19,0.321 -0.19,0.631l0,1.32l-0.41,0Z" style="fill:#fff;fill-rule:nonzero;"/><path d="M809.781,528.432l0.406,-0.064c0.022,0.162 0.086,0.287 0.19,0.373c0.104,0.087 0.249,0.13 0.436,0.13c0.188,0 0.327,-0.038 0.419,-0.115c0.091,-0.077 0.136,-0.167 0.136,-0.27c0,-0.092 -0.04,-0.165 -0.121,-0.218c-0.056,-0.037 -0.195,-0.083 -0.418,-0.139c-0.301,-0.076 -0.509,-0.142 -0.625,-0.197c-0.116,-0.055 -0.204,-0.132 -0.264,-0.23c-0.06,-0.098 -0.09,-0.206 -0.09,-0.324c0,-0.108 0.024,-0.208 0.074,-0.3c0.049,-0.091 0.116,-0.168 0.201,-0.228c0.064,-0.048 0.151,-0.087 0.261,-0.12c0.11,-0.033 0.228,-0.049 0.354,-0.049c0.19,0 0.356,0.027 0.499,0.082c0.144,0.055 0.25,0.129 0.318,0.222c0.068,0.093 0.115,0.218 0.141,0.374l-0.401,0.055c-0.018,-0.124 -0.07,-0.221 -0.158,-0.291c-0.087,-0.07 -0.21,-0.105 -0.37,-0.105c-0.188,0 -0.322,0.031 -0.402,0.093c-0.081,0.063 -0.121,0.135 -0.121,0.219c0,0.053 0.017,0.101 0.05,0.143c0.033,0.044 0.086,0.081 0.157,0.11c0.041,0.015 0.162,0.05 0.362,0.104c0.29,0.078 0.492,0.141 0.607,0.19c0.114,0.05 0.204,0.121 0.269,0.215c0.066,0.094 0.098,0.211 0.098,0.351c0,0.137 -0.04,0.265 -0.119,0.386c-0.08,0.12 -0.195,0.214 -0.345,0.28c-0.15,0.066 -0.32,0.099 -0.51,0.099c-0.314,0 -0.554,-0.065 -0.718,-0.196c-0.165,-0.13 -0.27,-0.324 -0.316,-0.58Z" style="fill:#fff;fill-rule:nonzero;"/><path d="M813.171,528.787l0.059,0.362c-0.115,0.024 -0.218,0.036 -0.309,0.036c-0.149,0 -0.265,-0.023 -0.347,-0.071c-0.082,-0.047 -0.139,-0.108 -0.173,-0.185c-0.033,-0.077 -0.05,-0.238 -0.05,-0.484l0,-1.391l-0.3,0l0,-0.318l0.3,0l0,-0.599l0.408,-0.246l0,0.845l0.412,0l0,0.318l-0.412,0l0,1.414c0,0.117 0.007,0.192 0.021,0.225c0.015,0.034 0.038,0.06 0.071,0.08c0.033,0.02 0.079,0.03 0.14,0.03c0.046,0 0.105,-0.006 0.18,-0.016Z" style="fill:#fff;fill-rule:nonzero;"/><path d="M813.809,526.287l0,-0.471l0.41,0l0,0.471l-0.41,0Zm0,2.866l0,-2.417l0.41,0l0,2.417l-0.41,0Z" style="fill:#fff;fill-rule:nonzero;"/><path d="M815.804,528.787l0.059,0.362c-0.115,0.024 -0.218,0.036 -0.309,0.036c-0.149,0 -0.264,-0.023 -0.346,-0.071c-0.082,-0.047 -0.14,-0.108 -0.173,-0.185c-0.034,-0.077 -0.05,-0.238 -0.05,-0.484l0,-1.391l-0.301,0l0,-0.318l0.301,0l0,-0.599l0.407,-0.246l0,0.845l0.412,0l0,0.318l-0.412,0l0,1.414c0,0.117 0.007,0.192 0.022,0.225c0.014,0.034 0.038,0.06 0.07,0.08c0.033,0.02 0.08,0.03 0.14,0.03c0.046,0 0.106,-0.006 0.18,-0.016Z" style="fill:#fff;fill-rule:nonzero;"/><path d="M817.957,529.153l0,-0.355c-0.188,0.273 -0.444,0.41 -0.767,0.41c-0.143,0 -0.276,-0.028 -0.4,-0.082c-0.123,-0.055 -0.215,-0.123 -0.275,-0.206c-0.06,-0.083 -0.102,-0.184 -0.126,-0.304c-0.017,-0.08 -0.025,-0.208 -0.025,-0.382l0,-1.498l0.409,0l0,1.34c0,0.214 0.009,0.359 0.025,0.433c0.026,0.108 0.081,0.192 0.164,0.254c0.084,0.061 0.187,0.092 0.31,0.092c0.123,0 0.238,-0.032 0.346,-0.094c0.108,-0.064 0.184,-0.149 0.229,-0.258c0.044,-0.108 0.067,-0.266 0.067,-0.472l0,-1.295l0.41,0l0,2.417l-0.367,0Z" style="fill:#fff;fill-rule:nonzero;"/><path d="M819.927,528.787l0.059,0.362c-0.115,0.024 -0.218,0.036 -0.309,0.036c-0.149,0 -0.264,-0.023 -0.346,-0.071c-0.082,-0.047 -0.14,-0.108 -0.173,-0.185c-0.033,-0.077 -0.05,-0.238 -0.05,-0.484l0,-1.391l-0.301,0l0,-0.318l0.301,0l0,-0.599l0.407,-0.246l0,0.845l0.412,0l0,0.318l-0.412,0l0,1.414c0,0.117 0.007,0.192 0.022,0.225c0.014,0.034 0.038,0.06 0.07,0.08c0.033,0.02 0.08,0.03 0.14,0.03c0.046,0 0.106,-0.006 0.18,-0.016Z" style="fill:#fff;fill-rule:nonzero;"/><path d="M822.117,528.375l0.424,0.052c-0.067,0.247 -0.191,0.439 -0.372,0.576c-0.18,0.137 -0.411,0.205 -0.692,0.205c-0.353,0 -0.633,-0.109 -0.841,-0.327c-0.207,-0.218 -0.31,-0.523 -0.31,-0.916c0,-0.407 0.104,-0.722 0.314,-0.947c0.209,-0.225 0.481,-0.337 0.815,-0.337c0.323,0 0.587,0.11 0.792,0.33c0.205,0.22 0.307,0.53 0.307,0.929c0,0.024 -0.001,0.061 -0.002,0.109l-1.803,0c0.015,0.266 0.09,0.469 0.225,0.61c0.135,0.141 0.304,0.212 0.506,0.212c0.15,0 0.278,-0.04 0.384,-0.118c0.107,-0.079 0.191,-0.205 0.253,-0.378Zm-1.345,-0.663l1.35,0c-0.019,-0.203 -0.07,-0.356 -0.155,-0.457c-0.131,-0.158 -0.3,-0.237 -0.508,-0.237c-0.188,0 -0.346,0.063 -0.474,0.189c-0.129,0.126 -0.2,0.294 -0.213,0.505Z" style="fill:#fff;fill-rule:nonzero;"/></g></g><g><ellipse cx="511.524" cy="529.902" rx="11.449" ry="11.338" style="fill:#6892a3;"/><path d="M560.434,553.237c0,-3.001 -2.437,-5.438 -5.438,-5.438l-43.993,0c-3.002,0 -5.439,2.437 -5.439,5.438l0,10.877c0,3.002 2.437,5.439 5.439,5.439l43.993,0c3.001,0 5.438,-2.437 5.438,-5.439l0,-10.877Z" style="fill:#6892a3;"/><rect x="509.969" y="566.563" width="3.724" height="24.14" style="fill:#6892a3;"/><rect x="516.633" y="566.563" width="3.724" height="24.14" style="fill:#6892a3;"/><path d="M560.04,527.604l-3.725,-0.023l-0.146,24.139l3.724,0.023l0.147,-24.139Z" style="fill:#6892a3;"/><path d="M533.964,527.604l-0.019,3.724l24.14,0.123l0.019,-3.724l-24.14,-0.123Z" style="fill:#6892a3;"/><path d="M506.353,524.338c1.829,0 3.314,1.566 3.314,3.495c0,1.929 -1.485,3.495 -3.314,3.495c-1.829,0 -3.314,-1.566 -3.314,-3.495c0,-1.929 1.485,-3.495 3.314,-3.495Zm0,1.747c0.915,0 1.657,0.783 1.657,1.748c0,0.964 -0.742,1.747 -1.657,1.747c-0.914,0 -1.657,-0.783 -1.657,-1.747c0,-0.965 0.743,-1.748 1.657,-1.748Z" style="fill:#fff;"/><path d="M516.62,524.338c1.829,0 3.314,1.566 3.314,3.495c0,1.929 -1.485,3.495 -3.314,3.495c-1.829,0 -3.314,-1.566 -3.314,-3.495c0,-1.929 1.485,-3.495 3.314,-3.495Zm0,1.747c0.914,0 1.657,0.783 1.657,1.748c0,0.964 -0.743,1.747 -1.657,1.747c-0.915,0 -1.657,-0.783 -1.657,-1.747c0,-0.965 0.742,-1.748 1.657,-1.748Z" style="fill:#fff;"/><path d="M511.331,535.169l-2.473,-3.808l4.895,-0.033l-2.422,3.841Z" style="fill:#fff;"/><path d="M502.738,522.668l-1.073,-4.412l4.63,1.59l-3.557,2.822Z" style="fill:#6892a3;"/><path d="M519.901,522.268l-3.711,-2.617l4.532,-1.849l-0.821,4.466Z" style="fill:#6892a3;"/><rect x="542.213" y="566.563" width="3.724" height="24.14" style="fill:#6892a3;"/><rect x="556.089" y="566.563" width="3.724" height="24.14" style="fill:#6892a3;"/><rect x="509.667" y="539.003" width="3.312" height="21.468" style="fill:#6892a3;"/><path d="M503.947,532.386c-0.049,3.965 3.271,7.225 7.408,7.275c4.136,0.051 7.534,-3.127 7.583,-7.092c-0.922,2.541 -3.999,4.576 -7.552,4.532c-3.553,-0.043 -6.58,-2.152 -7.439,-4.715Z" style="fill:#ebebeb;"/><path d="M506.375,525.902c-0.348,0.159 -0.631,0.96 -0.631,1.909c0,0.948 0.283,1.749 0.631,1.908c0.292,-0.236 0.528,-1.01 0.528,-1.908c0,-0.899 -0.236,-1.673 -0.528,-1.909Z" style="fill:#585858;"/><path d="M516.685,525.892c-0.348,0.159 -0.631,0.959 -0.631,1.908c0,0.949 0.283,1.749 0.631,1.908c0.292,-0.236 0.528,-1.01 0.528,-1.908c0,-0.899 -0.236,-1.672 -0.528,-1.908Z" style="fill:#585858;"/><path d="M513.718,533.076l0.035,0.246l13.222,-1.11l-0.034,-0.246l-13.223,1.11Z" style="fill:#585858;"/><path d="M508.689,533.076l-0.036,0.246l-13.834,-1.11l0.036,-0.246l13.834,1.11Z" style="fill:#585858;"/><path d="M513.617,533.559l0.035,0.246l13.223,-1.11l-0.035,-0.246l-13.223,1.11Z" style="fill:#585858;"/><path d="M508.794,533.559l-0.036,0.246l-13.834,-1.11l0.036,-0.246l13.834,1.11Z" style="fill:#585858;"/><path d="M513.613,534.102l0.034,0.246l13.223,-1.11l-0.034,-0.246l-13.223,1.11Z" style="fill:#585858;"/><path d="M508.799,534.102l-0.036,0.246l-13.834,-1.11l0.036,-0.246l13.834,1.11Z" style="fill:#585858;"/></g><g><ellipse cx="511.524" cy="529.902" rx="11.449" ry="11.338" style="fill:#6892a3;"/><path d="M560.434,553.237c0,-3.001 -2.437,-5.438 -5.438,-5.438l-43.993,0c-3.002,0 -5.439,2.437 -5.439,5.438l0,10.877c0,3.002 2.437,5.439 5.439,5.439l43.993,0c3.001,0 5.438,-2.437 5.438,-5.439l0,-10.877Z" style="fill:#6892a3;"/><rect x="509.969" y="566.563" width="3.724" height="24.14" style="fill:#6892a3;"/><rect x="516.633" y="566.563" width="3.724" height="24.14" style="fill:#6892a3;"/><path d="M560.04,527.604l-3.725,-0.023l-0.146,24.139l3.724,0.023l0.147,-24.139Z" style="fill:#6892a3;"/><path d="M533.964,527.604l-0.019,3.724l24.14,0.123l0.019,-3.724l-24.14,-0.123Z" style="fill:#6892a3;"/><path d="M506.353,524.338c1.829,0 3.314,1.566 3.314,3.495c0,1.929 -1.485,3.495 -3.314,3.495c-1.829,0 -3.314,-1.566 -3.314,-3.495c0,-1.929 1.485,-3.495 3.314,-3.495Zm0,1.747c0.915,0 1.657,0.783 1.657,1.748c0,0.964 -0.742,1.747 -1.657,1.747c-0.914,0 -1.657,-0.783 -1.657,-1.747c0,-0.965 0.743,-1.748 1.657,-1.748Z" style="fill:#fff;"/><path d="M516.62,524.338c1.829,0 3.314,1.566 3.314,3.495c0,1.929 -1.485,3.495 -3.314,3.495c-1.829,0 -3.314,-1.566 -3.314,-3.495c0,-1.929 1.485,-3.495 3.314,-3.495Zm0,1.747c0.914,0 1.657,0.783 1.657,1.748c0,0.964 -0.743,1.747 -1.657,1.747c-0.915,0 -1.657,-0.783 -1.657,-1.747c0,-0.965 0.742,-1.748 1.657,-1.748Z" style="fill:#fff;"/><path d="M511.331,535.169l-2.473,-3.808l4.895,-0.033l-2.422,3.841Z" style="fill:#fff;"/><path d="M502.738,522.668l-1.073,-4.412l4.63,1.59l-3.557,2.822Z" style="fill:#6892a3;"/><path d="M519.901,522.268l-3.711,-2.617l4.532,-1.849l-0.821,4.466Z" style="fill:#6892a3;"/><rect x="542.213" y="566.563" width="3.724" height="24.14" style="fill:#6892a3;"/><rect x="556.089" y="566.563" width="3.724" height="24.14" style="fill:#6892a3;"/><rect x="509.667" y="539.003" width="3.312" height="21.468" style="fill:#6892a3;"/><path d="M503.947,532.386c-0.049,3.965 3.271,7.225 7.408,7.275c4.136,0.051 7.534,-3.127 7.583,-7.092c-0.922,2.541 -3.999,4.576 -7.552,4.532c-3.553,-0.043 -6.58,-2.152 -7.439,-4.715Z" style="fill:#ebebeb;"/><path d="M506.375,525.902c-0.348,0.159 -0.631,0.96 -0.631,1.909c0,0.948 0.283,1.749 0.631,1.908c0.292,-0.236 0.528,-1.01 0.528,-1.908c0,-0.899 -0.236,-1.673 -0.528,-1.909Z" style="fill:#585858;"/><path d="M516.685,525.892c-0.348,0.159 -0.631,0.959 -0.631,1.908c0,0.949 0.283,1.749 0.631,1.908c0.292,-0.236 0.528,-1.01 0.528,-1.908c0,-0.899 -0.236,-1.672 -0.528,-1.908Z" style="fill:#585858;"/><path d="M513.718,533.076l0.035,0.246l13.222,-1.11l-0.034,-0.246l-13.223,1.11Z" style="fill:#585858;"/><path d="M508.689,533.076l-0.036,0.246l-13.834,-1.11l0.036,-0.246l13.834,1.11Z" style="fill:#585858;"/><path d="M513.617,533.559l0.035,0.246l13.223,-1.11l-0.035,-0.246l-13.223,1.11Z" style="fill:#585858;"/><path d="M508.794,533.559l-0.036,0.246l-13.834,-1.11l0.036,-0.246l13.834,1.11Z" style="fill:#585858;"/><path d="M513.613,534.102l0.034,0.246l13.223,-1.11l-0.034,-0.246l-13.223,1.11Z" style="fill:#585858;"/><path d="M508.799,534.102l-0.036,0.246l-13.834,-1.11l0.036,-0.246l13.834,1.11Z" style="fill:#585858;"/></g><g><g><ellipse cx="720.796" cy="544.871" rx="7.018" ry="6.965" style="fill:#6892a3;"/><rect x="712.731" y="551.836" width="16.549" height="27.131" style="fill:#6892a3;"/><path d="M703.601,542.438l-2.28,2.211l13.268,13.682l2.28,-2.21l-13.268,-13.683Z" style="fill:#6892a3;"/><path d="M738.479,541.947l2.28,2.211l-13.268,13.683l-2.28,-2.211l13.268,-13.683Z" style="fill:#6892a3;"/><path d="M727.856,594.026l-1.543,1.497l13.267,13.683l1.544,-1.497l-13.268,-13.683Z" style="fill:#6892a3;"/><path d="M714.589,593.798l-1.763,1.71l13.268,13.682l1.762,-1.709l-13.267,-13.683Z" style="fill:#6892a3;"/><rect x="701.321" y="527.992" width="2.874" height="16.657" style="fill:#6892a3;"/><rect x="737.885" y="527.501" width="2.874" height="16.657" style="fill:#6892a3;"/><rect x="726.313" y="578.967" width="2.874" height="16.657" style="fill:#6892a3;"/><rect x="712.826" y="578.952" width="2.874" height="16.657" style="fill:#6892a3;"/></g><text x="714.561px" y="560.692px" style="font-family:'ArialMT', 'Arial', sans-serif;font-size:5px;fill:#fff;">HTML</text><path d="M716.912,547.136c-0.041,1.871 1.712,3.43 3.913,3.478c2.2,0.048 4.02,-1.432 4.062,-3.303c-0.943,0.541 -2.42,0.965 -4.01,0.93c-1.591,-0.035 -3.047,-0.523 -3.965,-1.105Z" style="fill:#ebebeb;"/><path d="M718.071,541.953c0.783,0 1.418,0.64 1.418,1.427c0,0.787 -0.635,1.426 -1.418,1.426c-0.782,0 -1.417,-0.639 -1.417,-1.426c0,-0.787 0.635,-1.427 1.417,-1.427Zm0,0.714c0.391,0 0.709,0.319 0.709,0.713c0,0.393 -0.318,0.713 -0.709,0.713c-0.391,0 -0.709,-0.32 -0.709,-0.713c0,-0.394 0.318,-0.713 0.709,-0.713Z" style="fill:#ebebeb;"/><path d="M723.534,541.953c0.782,0 1.417,0.64 1.417,1.427c0,0.787 -0.635,1.426 -1.417,1.426c-0.783,0 -1.418,-0.639 -1.418,-1.426c0,-0.787 0.635,-1.427 1.418,-1.427Zm0,0.714c0.391,0 0.708,0.319 0.708,0.713c0,0.393 -0.317,0.713 -0.708,0.713c-0.391,0 -0.709,-0.32 -0.709,-0.713c0,-0.394 0.318,-0.713 0.709,-0.713Z" style="fill:#ebebeb;"/><ellipse cx="720.24" cy="546.557" rx="0.323" ry="0.361" style="fill:#ebebeb;"/><ellipse cx="721.321" cy="546.557" rx="0.323" ry="0.361" style="fill:#ebebeb;"/><rect x="720.022" y="543.38" width="0.14" height="2.514" style="fill:#ebebeb;"/><rect x="721.309" y="543.345" width="0.14" height="2.514" style="fill:#ebebeb;"/><path d="M714.153,542.855c-0.114,-0.164 -0.246,-0.252 -0.382,-0.256c-0.429,-0.01 -0.796,0.805 -0.821,1.818c-0.024,1.013 0.304,1.844 0.733,1.855c0.136,0.003 0.272,-0.079 0.394,-0.237l0.076,-3.18Z" style="fill:#6892a3;"/><path d="M727.568,543.083c0.114,-0.164 0.246,-0.252 0.382,-0.255c0.428,-0.01 0.796,0.804 0.82,1.818c0.025,1.013 -0.304,1.844 -0.732,1.854c-0.137,0.003 -0.272,-0.078 -0.394,-0.237l-0.076,-3.18Z" style="fill:#6892a3;"/><path d="M725.162,539.249c0.451,-0.437 0.654,-0.884 0.59,-1.296c-0.202,-1.298 -2.952,-1.948 -6.138,-1.452c-3.185,0.497 -5.607,1.953 -5.405,3.251c0.065,0.413 0.395,0.776 0.957,1.055l9.996,-1.558Z" style="fill:#6892a3;"/></g><g><g><ellipse cx="720.796" cy="544.871" rx="7.018" ry="6.965" style="fill:#6892a3;"/><rect x="712.731" y="551.836" width="16.549" height="27.131" style="fill:#6892a3;"/><path d="M703.601,542.438l-2.28,2.211l13.268,13.682l2.28,-2.21l-13.268,-13.683Z" style="fill:#6892a3;"/><path d="M738.479,541.947l2.28,2.211l-13.268,13.683l-2.28,-2.211l13.268,-13.683Z" style="fill:#6892a3;"/><path d="M727.856,594.026l-1.543,1.497l13.267,13.683l1.544,-1.497l-13.268,-13.683Z" style="fill:#6892a3;"/><path d="M714.589,593.798l-1.763,1.71l13.268,13.682l1.762,-1.709l-13.267,-13.683Z" style="fill:#6892a3;"/><rect x="701.321" y="527.992" width="2.874" height="16.657" style="fill:#6892a3;"/><rect x="737.885" y="527.501" width="2.874" height="16.657" style="fill:#6892a3;"/><rect x="726.313" y="578.967" width="2.874" height="16.657" style="fill:#6892a3;"/><rect x="712.826" y="578.952" width="2.874" height="16.657" style="fill:#6892a3;"/></g><text x="714.561px" y="560.692px" style="font-family:'ArialMT', 'Arial', sans-serif;font-size:5px;fill:#fff;">HTML</text><path d="M716.912,547.136c-0.041,1.871 1.712,3.43 3.913,3.478c2.2,0.048 4.02,-1.432 4.062,-3.303c-0.943,0.541 -2.42,0.965 -4.01,0.93c-1.591,-0.035 -3.047,-0.523 -3.965,-1.105Z" style="fill:#ebebeb;"/><path d="M718.071,541.953c0.783,0 1.418,0.64 1.418,1.427c0,0.787 -0.635,1.426 -1.418,1.426c-0.782,0 -1.417,-0.639 -1.417,-1.426c0,-0.787 0.635,-1.427 1.417,-1.427Zm0,0.714c0.391,0 0.709,0.319 0.709,0.713c0,0.393 -0.318,0.713 -0.709,0.713c-0.391,0 -0.709,-0.32 -0.709,-0.713c0,-0.394 0.318,-0.713 0.709,-0.713Z" style="fill:#ebebeb;"/><path d="M723.534,541.953c0.782,0 1.417,0.64 1.417,1.427c0,0.787 -0.635,1.426 -1.417,1.426c-0.783,0 -1.418,-0.639 -1.418,-1.426c0,-0.787 0.635,-1.427 1.418,-1.427Zm0,0.714c0.391,0 0.708,0.319 0.708,0.713c0,0.393 -0.317,0.713 -0.708,0.713c-0.391,0 -0.709,-0.32 -0.709,-0.713c0,-0.394 0.318,-0.713 0.709,-0.713Z" style="fill:#ebebeb;"/><ellipse cx="720.24" cy="546.557" rx="0.323" ry="0.361" style="fill:#ebebeb;"/><ellipse cx="721.321" cy="546.557" rx="0.323" ry="0.361" style="fill:#ebebeb;"/><rect x="720.022" y="543.38" width="0.14" height="2.514" style="fill:#ebebeb;"/><rect x="721.309" y="543.345" width="0.14" height="2.514" style="fill:#ebebeb;"/><path d="M714.153,542.855c-0.114,-0.164 -0.246,-0.252 -0.382,-0.256c-0.429,-0.01 -0.796,0.805 -0.821,1.818c-0.024,1.013 0.304,1.844 0.733,1.855c0.136,0.003 0.272,-0.079 0.394,-0.237l0.076,-3.18Z" style="fill:#6892a3;"/><path d="M727.568,543.083c0.114,-0.164 0.246,-0.252 0.382,-0.255c0.428,-0.01 0.796,0.804 0.82,1.818c0.025,1.013 -0.304,1.844 -0.732,1.854c-0.137,0.003 -0.272,-0.078 -0.394,-0.237l-0.076,-3.18Z" style="fill:#6892a3;"/><path d="M725.162,539.249c0.451,-0.437 0.654,-0.884 0.59,-1.296c-0.202,-1.298 -2.952,-1.948 -6.138,-1.452c-3.185,0.497 -5.607,1.953 -5.405,3.251c0.065,0.413 0.395,0.776 0.957,1.055l9.996,-1.558Z" style="fill:#6892a3;"/></g><g><g><ellipse cx="688.072" cy="537.257" rx="7.018" ry="6.965" style="fill:#6892a3;"/><rect x="680.007" y="544.222" width="16.549" height="27.131" style="fill:#6892a3;"/><path d="M670.877,534.824l-2.28,2.211l13.268,13.682l2.28,-2.21l-13.268,-13.683Z" style="fill:#6892a3;"/><path d="M705.755,534.333l2.28,2.211l-13.268,13.682l-2.28,-2.21l13.268,-13.683Z" style="fill:#6892a3;"/><path d="M700.261,586.891l-2.73,-0.663l-5.428,22.347l2.73,0.663l5.428,-22.347Z" style="fill:#6892a3;"/><path d="M679.531,585.66l-2.816,0.462l3.684,22.453l2.816,-0.462l-3.684,-22.453Z" style="fill:#6892a3;"/><rect x="668.597" y="520.378" width="2.874" height="16.657" style="fill:#6892a3;"/><rect x="705.161" y="519.887" width="2.874" height="16.657" style="fill:#6892a3;"/><path d="M693.204,571.401l2.772,-0.756l4.383,16.07l-2.773,0.756l-4.382,-16.07Z" style="fill:#6892a3;"/><path d="M680.428,570.036l2.787,0.699l-4.057,16.156l-2.787,-0.7l4.057,-16.155Z" style="fill:#6892a3;"/></g><text x="683.321px" y="553.402px" style="font-family:'ArialMT', 'Arial', sans-serif;font-size:5px;fill:#fff;">CSS</text><path d="M684.253,539.396c-0.049,2.235 1.698,4.088 3.898,4.136c2.201,0.049 4.027,-1.726 4.076,-3.96c-0.945,0.65 -2.423,1.162 -4.013,1.127c-1.591,-0.035 -3.045,-0.612 -3.961,-1.303Z" style="fill:#ebebeb;"/><path d="M685.347,534.903c0.783,0 1.418,0.513 1.418,1.144c0,0.632 -0.635,1.145 -1.418,1.145c-0.782,0 -1.417,-0.513 -1.417,-1.145c0,-0.631 0.635,-1.144 1.417,-1.144Zm0,0.572c0.392,0 0.709,0.257 0.709,0.572c0,0.316 -0.317,0.573 -0.709,0.573c-0.391,0 -0.708,-0.257 -0.708,-0.573c0,-0.315 0.317,-0.572 0.708,-0.572Z" style="fill:#ebebeb;"/><path d="M690.81,534.903c0.782,0 1.417,0.513 1.417,1.144c0,0.632 -0.635,1.145 -1.417,1.145c-0.782,0 -1.418,-0.513 -1.418,-1.145c0,-0.631 0.636,-1.144 1.418,-1.144Zm0,0.572c0.391,0 0.709,0.257 0.709,0.572c0,0.316 -0.318,0.573 -0.709,0.573c-0.391,0 -0.709,-0.257 -0.709,-0.573c0,-0.315 0.318,-0.572 0.709,-0.572Z" style="fill:#ebebeb;"/><ellipse cx="687.516" cy="538.943" rx="0.323" ry="0.361" style="fill:#ebebeb;"/><ellipse cx="688.597" cy="538.943" rx="0.323" ry="0.361" style="fill:#ebebeb;"/><path d="M687.839,535.49l-0.136,-0.034l-0.6,2.442l0.137,0.034l0.599,-2.442Z" style="fill:#ebebeb;"/><path d="M688.5,535.429l-0.139,0.024l0.421,2.479l0.139,-0.024l-0.421,-2.479Z" style="fill:#ebebeb;"/><path d="M681.382,535.093c-0.229,-0.204 -0.492,-0.315 -0.762,-0.322c-0.849,-0.02 -1.563,0.979 -1.593,2.23c-0.029,1.25 0.636,2.282 1.485,2.303c0.27,0.006 0.538,-0.092 0.776,-0.286l0.094,-3.925Z" style="fill:#6892a3;"/><path d="M694.697,534.924c0.292,-0.225 0.627,-0.347 0.971,-0.356c1.08,-0.025 1.984,1.063 2.017,2.43c0.032,1.367 -0.818,2.498 -1.899,2.523c-0.343,0.009 -0.684,-0.098 -0.986,-0.308l-0.103,-4.289Z" style="fill:#6892a3;"/><path d="M696.733,536.868c-0.037,-5.265 -3.871,-9.514 -8.557,-9.481c-4.686,0.033 -8.46,4.335 -8.423,9.601c0.417,-4.435 4.042,-8.059 8.434,-8.09c4.391,-0.03 8.066,3.542 8.546,7.97Z" style="fill:#6892a3;"/></g><g><g><ellipse cx="688.072" cy="537.257" rx="7.018" ry="6.965" style="fill:#6892a3;"/><rect x="680.007" y="544.222" width="16.549" height="27.131" style="fill:#6892a3;"/><path d="M670.877,534.824l-2.28,2.211l13.268,13.682l2.28,-2.21l-13.268,-13.683Z" style="fill:#6892a3;"/><path d="M705.755,534.333l2.28,2.211l-13.268,13.682l-2.28,-2.21l13.268,-13.683Z" style="fill:#6892a3;"/><path d="M700.261,586.891l-2.73,-0.663l-5.428,22.347l2.73,0.663l5.428,-22.347Z" style="fill:#6892a3;"/><path d="M679.531,585.66l-2.816,0.462l3.684,22.453l2.816,-0.462l-3.684,-22.453Z" style="fill:#6892a3;"/><rect x="668.597" y="520.378" width="2.874" height="16.657" style="fill:#6892a3;"/><rect x="705.161" y="519.887" width="2.874" height="16.657" style="fill:#6892a3;"/><path d="M693.204,571.401l2.772,-0.756l4.383,16.07l-2.773,0.756l-4.382,-16.07Z" style="fill:#6892a3;"/><path d="M680.428,570.036l2.787,0.699l-4.057,16.156l-2.787,-0.7l4.057,-16.155Z" style="fill:#6892a3;"/></g><text x="683.321px" y="553.402px" style="font-family:'ArialMT', 'Arial', sans-serif;font-size:5px;fill:#fff;">CSS</text><path d="M684.253,539.396c-0.049,2.235 1.698,4.088 3.898,4.136c2.201,0.049 4.027,-1.726 4.076,-3.96c-0.945,0.65 -2.423,1.162 -4.013,1.127c-1.591,-0.035 -3.045,-0.612 -3.961,-1.303Z" style="fill:#ebebeb;"/><path d="M685.347,534.903c0.783,0 1.418,0.513 1.418,1.144c0,0.632 -0.635,1.145 -1.418,1.145c-0.782,0 -1.417,-0.513 -1.417,-1.145c0,-0.631 0.635,-1.144 1.417,-1.144Zm0,0.572c0.392,0 0.709,0.257 0.709,0.572c0,0.316 -0.317,0.573 -0.709,0.573c-0.391,0 -0.708,-0.257 -0.708,-0.573c0,-0.315 0.317,-0.572 0.708,-0.572Z" style="fill:#ebebeb;"/><path d="M690.81,534.903c0.782,0 1.417,0.513 1.417,1.144c0,0.632 -0.635,1.145 -1.417,1.145c-0.782,0 -1.418,-0.513 -1.418,-1.145c0,-0.631 0.636,-1.144 1.418,-1.144Zm0,0.572c0.391,0 0.709,0.257 0.709,0.572c0,0.316 -0.318,0.573 -0.709,0.573c-0.391,0 -0.709,-0.257 -0.709,-0.573c0,-0.315 0.318,-0.572 0.709,-0.572Z" style="fill:#ebebeb;"/><ellipse cx="687.516" cy="538.943" rx="0.323" ry="0.361" style="fill:#ebebeb;"/><ellipse cx="688.597" cy="538.943" rx="0.323" ry="0.361" style="fill:#ebebeb;"/><path d="M687.839,535.49l-0.136,-0.034l-0.6,2.442l0.137,0.034l0.599,-2.442Z" style="fill:#ebebeb;"/><path d="M688.5,535.429l-0.139,0.024l0.421,2.479l0.139,-0.024l-0.421,-2.479Z" style="fill:#ebebeb;"/><path d="M681.382,535.093c-0.229,-0.204 -0.492,-0.315 -0.762,-0.322c-0.849,-0.02 -1.563,0.979 -1.593,2.23c-0.029,1.25 0.636,2.282 1.485,2.303c0.27,0.006 0.538,-0.092 0.776,-0.286l0.094,-3.925Z" style="fill:#6892a3;"/><path d="M694.697,534.924c0.292,-0.225 0.627,-0.347 0.971,-0.356c1.08,-0.025 1.984,1.063 2.017,2.43c0.032,1.367 -0.818,2.498 -1.899,2.523c-0.343,0.009 -0.684,-0.098 -0.986,-0.308l-0.103,-4.289Z" style="fill:#6892a3;"/><path d="M696.733,536.868c-0.037,-5.265 -3.871,-9.514 -8.557,-9.481c-4.686,0.033 -8.46,4.335 -8.423,9.601c0.417,-4.435 4.042,-8.059 8.434,-8.09c4.391,-0.03 8.066,3.542 8.546,7.97Z" style="fill:#6892a3;"/></g><g><g><g><ellipse cx="630.667" cy="535.247" rx="7.018" ry="8.62" style="fill:#6892a3;"/><rect x="622.602" y="543.867" width="16.549" height="27.131" style="fill:#6892a3;"/><path d="M613.473,534.469l-2.28,2.211l13.267,13.683l2.28,-2.211l-13.267,-13.683Z" style="fill:#6892a3;"/><path d="M648.35,533.978l2.28,2.211l-13.267,13.683l-2.28,-2.211l13.267,-13.683Z" style="fill:#6892a3;"/><path d="M643.131,585.768l-2.752,0.565l4.626,22.527l2.752,-0.565l-4.626,-22.527Z" style="fill:#6892a3;"/><path d="M622.126,585.306l-2.816,0.462l3.685,22.452l2.816,-0.462l-3.685,-22.452Z" style="fill:#6892a3;"/><rect x="611.193" y="520.023" width="2.874" height="16.657" style="fill:#6892a3;"/><rect x="647.757" y="519.532" width="2.874" height="16.657" style="fill:#6892a3;"/><path d="M635.799,571.046l2.772,-0.756l4.383,16.07l-2.772,0.756l-4.383,-16.07Z" style="fill:#6892a3;"/><path d="M623.024,569.681l2.787,0.7l-4.058,16.155l-2.787,-0.7l4.058,-16.155Z" style="fill:#6892a3;"/></g><text x="626.848px" y="559.659px" style="font-family:'ArialMT', 'Arial', sans-serif;font-size:14px;fill:#fff;">?</text><path d="M626.526,538.949c-0.028,1.243 1.737,2.291 3.937,2.339c2.201,0.048 4.01,-0.921 4.037,-2.163c-0.939,0.352 -2.412,0.622 -4.002,0.587c-1.591,-0.035 -3.05,-0.37 -3.972,-0.763Z" style="fill:#ebebeb;"/><path d="M627.943,531.121c0.782,0 1.418,0.513 1.418,1.144c0,0.632 -0.636,1.145 -1.418,1.145c-0.782,0 -1.417,-0.513 -1.417,-1.145c0,-0.631 0.635,-1.144 1.417,-1.144Zm0,0.572c0.391,0 0.709,0.256 0.709,0.572c0,0.316 -0.318,0.572 -0.709,0.572c-0.391,0 -0.709,-0.256 -0.709,-0.572c0,-0.316 0.318,-0.572 0.709,-0.572Z" style="fill:#ebebeb;"/><path d="M633.406,531.121c0.782,0 1.417,0.513 1.417,1.144c0,0.632 -0.635,1.145 -1.417,1.145c-0.783,0 -1.418,-0.513 -1.418,-1.145c0,-0.631 0.635,-1.144 1.418,-1.144Zm0,0.572c0.391,0 0.708,0.256 0.708,0.572c0,0.316 -0.317,0.572 -0.708,0.572c-0.392,0 -0.709,-0.256 -0.709,-0.572c0,-0.316 0.317,-0.572 0.709,-0.572Z" style="fill:#ebebeb;"/><ellipse cx="630.039" cy="536.329" rx="0.34" ry="0.361" style="fill:#ebebeb;"/><ellipse cx="631.176" cy="536.329" rx="0.34" ry="0.361" style="fill:#ebebeb;"/><path d="M630.435,532.894l-0.137,-0.047l-0.599,3.437l0.136,0.047l0.6,-3.437Z" style="fill:#ebebeb;"/><path d="M631.095,532.809l-0.138,0.033l0.42,3.489l0.139,-0.033l-0.421,-3.489Z" style="fill:#ebebeb;"/><path d="M623.978,534.739c-0.23,-0.205 -0.492,-0.316 -0.762,-0.322c-0.85,-0.021 -1.563,0.978 -1.593,2.229c-0.03,1.251 0.635,2.283 1.484,2.303c0.27,0.006 0.538,-0.092 0.777,-0.285l0.094,-3.925Z" style="fill:#6892a3;"/><path d="M637.292,534.569c0.293,-0.225 0.628,-0.347 0.971,-0.355c1.081,-0.026 1.984,1.063 2.017,2.429c0.033,1.367 -0.818,2.498 -1.898,2.524c-0.344,0.008 -0.684,-0.098 -0.987,-0.309l-0.103,-4.289Z" style="fill:#6892a3;"/></g></g><g><g><g><ellipse cx="630.667" cy="535.247" rx="7.018" ry="8.62" style="fill:#6892a3;"/><rect x="622.602" y="543.867" width="16.549" height="27.131" style="fill:#6892a3;"/><path d="M613.473,534.469l-2.28,2.211l13.267,13.683l2.28,-2.211l-13.267,-13.683Z" style="fill:#6892a3;"/><path d="M648.35,533.978l2.28,2.211l-13.267,13.683l-2.28,-2.211l13.267,-13.683Z" style="fill:#6892a3;"/><path d="M643.131,585.768l-2.752,0.565l4.626,22.527l2.752,-0.565l-4.626,-22.527Z" style="fill:#6892a3;"/><path d="M622.126,585.306l-2.816,0.462l3.685,22.452l2.816,-0.462l-3.685,-22.452Z" style="fill:#6892a3;"/><rect x="611.193" y="520.023" width="2.874" height="16.657" style="fill:#6892a3;"/><rect x="647.757" y="519.532" width="2.874" height="16.657" style="fill:#6892a3;"/><path d="M635.799,571.046l2.772,-0.756l4.383,16.07l-2.772,0.756l-4.383,-16.07Z" style="fill:#6892a3;"/><path d="M623.024,569.681l2.787,0.7l-4.058,16.155l-2.787,-0.7l4.058,-16.155Z" style="fill:#6892a3;"/></g><text x="626.848px" y="559.659px" style="font-family:'ArialMT', 'Arial', sans-serif;font-size:14px;fill:#fff;">?</text><path d="M626.526,538.949c-0.028,1.243 1.737,2.291 3.937,2.339c2.201,0.048 4.01,-0.921 4.037,-2.163c-0.939,0.352 -2.412,0.622 -4.002,0.587c-1.591,-0.035 -3.05,-0.37 -3.972,-0.763Z" style="fill:#ebebeb;"/><path d="M627.943,531.121c0.782,0 1.418,0.513 1.418,1.144c0,0.632 -0.636,1.145 -1.418,1.145c-0.782,0 -1.417,-0.513 -1.417,-1.145c0,-0.631 0.635,-1.144 1.417,-1.144Zm0,0.572c0.391,0 0.709,0.256 0.709,0.572c0,0.316 -0.318,0.572 -0.709,0.572c-0.391,0 -0.709,-0.256 -0.709,-0.572c0,-0.316 0.318,-0.572 0.709,-0.572Z" style="fill:#ebebeb;"/><path d="M633.406,531.121c0.782,0 1.417,0.513 1.417,1.144c0,0.632 -0.635,1.145 -1.417,1.145c-0.783,0 -1.418,-0.513 -1.418,-1.145c0,-0.631 0.635,-1.144 1.418,-1.144Zm0,0.572c0.391,0 0.708,0.256 0.708,0.572c0,0.316 -0.317,0.572 -0.708,0.572c-0.392,0 -0.709,-0.256 -0.709,-0.572c0,-0.316 0.317,-0.572 0.709,-0.572Z" style="fill:#ebebeb;"/><ellipse cx="630.039" cy="536.329" rx="0.34" ry="0.361" style="fill:#ebebeb;"/><ellipse cx="631.176" cy="536.329" rx="0.34" ry="0.361" style="fill:#ebebeb;"/><path d="M630.435,532.894l-0.137,-0.047l-0.599,3.437l0.136,0.047l0.6,-3.437Z" style="fill:#ebebeb;"/><path d="M631.095,532.809l-0.138,0.033l0.42,3.489l0.139,-0.033l-0.421,-3.489Z" style="fill:#ebebeb;"/><path d="M623.978,534.739c-0.23,-0.205 -0.492,-0.316 -0.762,-0.322c-0.85,-0.021 -1.563,0.978 -1.593,2.229c-0.03,1.251 0.635,2.283 1.484,2.303c0.27,0.006 0.538,-0.092 0.777,-0.285l0.094,-3.925Z" style="fill:#6892a3;"/><path d="M637.292,534.569c0.293,-0.225 0.628,-0.347 0.971,-0.355c1.081,-0.026 1.984,1.063 2.017,2.429c0.033,1.367 -0.818,2.498 -1.898,2.524c-0.344,0.008 -0.684,-0.098 -0.987,-0.309l-0.103,-4.289Z" style="fill:#6892a3;"/></g></g><g><g><ellipse cx="659.49" cy="541.596" rx="5.214" ry="6.332" style="fill:#6892a3;"/><rect x="653.497" y="547.928" width="12.295" height="24.668" style="fill:#6892a3;"/><path d="M646.715,539.384l-1.694,2.01l9.857,12.44l1.694,-2.01l-9.857,-12.44Z" style="fill:#6892a3;"/><path d="M672.628,538.938l1.693,2.01l-9.857,12.44l-1.694,-2.01l9.858,-12.44Z" style="fill:#6892a3;"/><path d="M664.247,586.697l-2.087,0.03l0.198,20.907l2.087,-0.03l-0.198,-20.907Z" style="fill:#6892a3;"/><path d="M657.297,586.95l-2.12,-0.002l-0.018,20.686l2.12,0.003l0.018,-20.687Z" style="fill:#6892a3;"/><rect x="645.021" y="526.25" width="2.135" height="15.144" style="fill:#6892a3;"/><rect x="672.186" y="525.803" width="2.135" height="15.144" style="fill:#6892a3;"/><path d="M663.675,572.161l2.117,0.33l-1.562,15.023l-2.118,-0.33l1.563,-15.023Z" style="fill:#6892a3;"/><path d="M653.497,572.307l2.116,-0.355l1.684,15.003l-2.115,0.356l-1.685,-15.004Z" style="fill:#6892a3;"/></g><text x="653.681px" y="556.07px" style="font-family:'ArialMT', 'Arial', sans-serif;font-size:5px;fill:#fff;">JA<tspan x="659.145px " y="556.07px ">V</tspan>A</text><path d="M657.842,533.917c0,-0.733 0.701,-1.329 1.565,-1.329c0.864,0 1.566,0.596 1.566,1.329c0.432,-0.635 1.39,-0.853 2.138,-0.486c0.748,0.367 1.005,1.18 0.573,1.815c0.748,-0.366 1.706,-0.148 2.138,0.487c0.432,0.635 0.175,1.449 -0.573,1.816c0.864,0 1.566,0.595 1.566,1.329c0,0.733 -0.702,1.329 -1.566,1.329c0.748,0.366 1.005,1.18 0.573,1.815c-0.432,0.636 -1.39,0.854 -2.138,0.487c0.432,0.635 0.175,1.449 -0.573,1.815c-0.748,0.367 -1.706,0.149 -2.138,-0.486c0,0.733 -0.702,1.329 -1.566,1.329c-0.864,0 -1.565,-0.596 -1.565,-1.329c-0.432,0.635 -1.39,0.853 -2.138,0.486c-0.748,-0.366 -1.005,-1.18 -0.573,-1.815c-0.748,0.367 -1.706,0.149 -2.138,-0.487c-0.432,-0.635 -0.176,-1.449 0.573,-1.815c-0.864,0 -1.566,-0.596 -1.566,-1.329c0,-0.734 0.702,-1.329 1.566,-1.329c-0.749,-0.367 -1.005,-1.181 -0.573,-1.816c0.432,-0.635 1.39,-0.853 2.138,-0.487c-0.432,-0.635 -0.175,-1.448 0.573,-1.815c0.748,-0.367 1.706,-0.149 2.138,0.486Z" style="fill:#6892a3;"/><path d="M656.652,543.541c-0.036,2.032 1.262,3.717 2.897,3.761c1.635,0.044 2.992,-1.57 3.028,-3.601c-0.702,0.59 -1.8,1.056 -2.982,1.024c-1.182,-0.032 -2.262,-0.556 -2.943,-1.184Z" style="fill:#ebebeb;"/><path d="M657.465,539.456c0.582,0 1.054,0.466 1.054,1.04c0,0.575 -0.472,1.041 -1.054,1.041c-0.581,0 -1.053,-0.466 -1.053,-1.041c0,-0.574 0.472,-1.04 1.053,-1.04Zm0,0.52c0.291,0 0.527,0.233 0.527,0.52c0,0.287 -0.236,0.521 -0.527,0.521c-0.29,0 -0.526,-0.234 -0.526,-0.521c0,-0.287 0.236,-0.52 0.526,-0.52Z" style="fill:#ebebeb;"/><path d="M661.524,539.456c0.581,0 1.053,0.466 1.053,1.04c0,0.575 -0.472,1.041 -1.053,1.041c-0.581,0 -1.053,-0.466 -1.053,-1.041c0,-0.574 0.472,-1.04 1.053,-1.04Zm0,0.52c0.29,0 0.526,0.233 0.526,0.52c0,0.287 -0.236,0.521 -0.526,0.521c-0.291,0 -0.527,-0.234 -0.527,-0.521c0,-0.287 0.236,-0.52 0.527,-0.52Z" style="fill:#ebebeb;"/><ellipse cx="659.077" cy="543.129" rx="0.24" ry="0.328" style="fill:#ebebeb;"/><ellipse cx="659.88" cy="543.129" rx="0.24" ry="0.328" style="fill:#ebebeb;"/><path d="M659.317,539.989l-0.102,-0.03l-0.445,2.22l0.101,0.03l0.446,-2.22Z" style="fill:#ebebeb;"/><path d="M659.808,539.934l-0.103,0.022l0.312,2.253l0.103,-0.021l-0.312,-2.254Z" style="fill:#ebebeb;"/></g><g><g><ellipse cx="659.49" cy="541.596" rx="5.214" ry="6.332" style="fill:#6892a3;"/><rect x="653.497" y="547.928" width="12.295" height="24.668" style="fill:#6892a3;"/><path d="M646.715,539.384l-1.694,2.01l9.857,12.44l1.694,-2.01l-9.857,-12.44Z" style="fill:#6892a3;"/><path d="M672.628,538.938l1.693,2.01l-9.857,12.44l-1.694,-2.01l9.858,-12.44Z" style="fill:#6892a3;"/><path d="M664.247,586.697l-2.087,0.03l0.198,20.907l2.087,-0.03l-0.198,-20.907Z" style="fill:#6892a3;"/><path d="M657.297,586.95l-2.12,-0.002l-0.018,20.686l2.12,0.003l0.018,-20.687Z" style="fill:#6892a3;"/><rect x="645.021" y="526.25" width="2.135" height="15.144" style="fill:#6892a3;"/><rect x="672.186" y="525.803" width="2.135" height="15.144" style="fill:#6892a3;"/><path d="M663.675,572.161l2.117,0.33l-1.562,15.023l-2.118,-0.33l1.563,-15.023Z" style="fill:#6892a3;"/><path d="M653.497,572.307l2.116,-0.355l1.684,15.003l-2.115,0.356l-1.685,-15.004Z" style="fill:#6892a3;"/></g><text x="653.681px" y="556.07px" style="font-family:'ArialMT', 'Arial', sans-serif;font-size:5px;fill:#fff;">JA<tspan x="659.145px " y="556.07px ">V</tspan>A</text><path d="M657.842,533.917c0,-0.733 0.701,-1.329 1.565,-1.329c0.864,0 1.566,0.596 1.566,1.329c0.432,-0.635 1.39,-0.853 2.138,-0.486c0.748,0.367 1.005,1.18 0.573,1.815c0.748,-0.366 1.706,-0.148 2.138,0.487c0.432,0.635 0.175,1.449 -0.573,1.816c0.864,0 1.566,0.595 1.566,1.329c0,0.733 -0.702,1.329 -1.566,1.329c0.748,0.366 1.005,1.18 0.573,1.815c-0.432,0.636 -1.39,0.854 -2.138,0.487c0.432,0.635 0.175,1.449 -0.573,1.815c-0.748,0.367 -1.706,0.149 -2.138,-0.486c0,0.733 -0.702,1.329 -1.566,1.329c-0.864,0 -1.565,-0.596 -1.565,-1.329c-0.432,0.635 -1.39,0.853 -2.138,0.486c-0.748,-0.366 -1.005,-1.18 -0.573,-1.815c-0.748,0.367 -1.706,0.149 -2.138,-0.487c-0.432,-0.635 -0.176,-1.449 0.573,-1.815c-0.864,0 -1.566,-0.596 -1.566,-1.329c0,-0.734 0.702,-1.329 1.566,-1.329c-0.749,-0.367 -1.005,-1.181 -0.573,-1.816c0.432,-0.635 1.39,-0.853 2.138,-0.487c-0.432,-0.635 -0.175,-1.448 0.573,-1.815c0.748,-0.367 1.706,-0.149 2.138,0.486Z" style="fill:#6892a3;"/><path d="M656.652,543.541c-0.036,2.032 1.262,3.717 2.897,3.761c1.635,0.044 2.992,-1.57 3.028,-3.601c-0.702,0.59 -1.8,1.056 -2.982,1.024c-1.182,-0.032 -2.262,-0.556 -2.943,-1.184Z" style="fill:#ebebeb;"/><path d="M657.465,539.456c0.582,0 1.054,0.466 1.054,1.04c0,0.575 -0.472,1.041 -1.054,1.041c-0.581,0 -1.053,-0.466 -1.053,-1.041c0,-0.574 0.472,-1.04 1.053,-1.04Zm0,0.52c0.291,0 0.527,0.233 0.527,0.52c0,0.287 -0.236,0.521 -0.527,0.521c-0.29,0 -0.526,-0.234 -0.526,-0.521c0,-0.287 0.236,-0.52 0.526,-0.52Z" style="fill:#ebebeb;"/><path d="M661.524,539.456c0.581,0 1.053,0.466 1.053,1.04c0,0.575 -0.472,1.041 -1.053,1.041c-0.581,0 -1.053,-0.466 -1.053,-1.041c0,-0.574 0.472,-1.04 1.053,-1.04Zm0,0.52c0.29,0 0.526,0.233 0.526,0.52c0,0.287 -0.236,0.521 -0.526,0.521c-0.291,0 -0.527,-0.234 -0.527,-0.521c0,-0.287 0.236,-0.52 0.527,-0.52Z" style="fill:#ebebeb;"/><ellipse cx="659.077" cy="543.129" rx="0.24" ry="0.328" style="fill:#ebebeb;"/><ellipse cx="659.88" cy="543.129" rx="0.24" ry="0.328" style="fill:#ebebeb;"/><path d="M659.317,539.989l-0.102,-0.03l-0.445,2.22l0.101,0.03l0.446,-2.22Z" style="fill:#ebebeb;"/><path d="M659.808,539.934l-0.103,0.022l0.312,2.253l0.103,-0.021l-0.312,-2.254Z" style="fill:#ebebeb;"/></g><path d="M599.454,607.637l-127.699,0l31.925,-16.934l63.849,0l31.925,16.934Z" style="fill:#6892a3;"/><path d="M599.454,607.637l-127.699,0l31.925,-16.934l63.849,0l31.925,16.934Z" style="fill:#6892a3;"/><g><path d="M307.117,74.019c-0.582,-1.209 -2.036,-1.717 -3.244,-1.135l-71.969,34.674c-1.209,0.582 -1.717,2.036 -1.135,3.244l2.11,4.379c0.582,1.209 2.036,1.717 3.244,1.135l71.97,-34.674c1.208,-0.582 1.716,-2.036 1.134,-3.244l-2.11,-4.379Z" style="fill:#6892a3;"/><path d="M239.621,74.252c-0.763,-0.354 -1.671,-0.022 -2.025,0.741l-1.284,2.766c-0.354,0.764 -0.022,1.671 0.741,2.025l34.129,15.843c0.763,0.354 1.67,0.022 2.025,-0.741l1.284,-2.766c0.354,-0.764 0.022,-1.671 -0.741,-2.025l-34.129,-15.843Z" style="fill:#6892a3;"/><path d="M279.83,94.767c0.434,-0.85 0.096,-1.892 -0.754,-2.325l-3.079,-1.572c-0.85,-0.433 -1.892,-0.096 -2.326,0.754l-17.699,34.687c-0.433,0.85 -0.095,1.892 0.754,2.325l3.08,1.572c0.85,0.433 1.892,0.095 2.326,-0.754l17.698,-34.687Z" style="fill:#6892a3;"/><path d="M229.924,100.431c-0.874,-0.773 -2.213,-0.691 -2.986,0.184l-2.802,3.171c-0.774,0.875 -0.691,2.213 0.184,2.986l5.916,5.23c0.875,0.773 2.214,0.691 2.987,-0.184l2.802,-3.171c0.774,-0.874 0.691,-2.213 -0.184,-2.986l-5.917,-5.23Z" style="fill:#6892a3;"/></g><g><path d="M307.117,74.019c-0.582,-1.209 -2.036,-1.717 -3.244,-1.135l-71.969,34.674c-1.209,0.582 -1.717,2.036 -1.135,3.244l2.11,4.379c0.582,1.209 2.036,1.717 3.244,1.135l71.97,-34.674c1.208,-0.582 1.716,-2.036 1.134,-3.244l-2.11,-4.379Z" style="fill:#6892a3;"/><path d="M239.621,74.252c-0.763,-0.354 -1.671,-0.022 -2.025,0.741l-1.284,2.766c-0.354,0.764 -0.022,1.671 0.741,2.025l34.129,15.843c0.763,0.354 1.67,0.022 2.025,-0.741l1.284,-2.766c0.354,-0.764 0.022,-1.671 -0.741,-2.025l-34.129,-15.843Z" style="fill:#6892a3;"/><path d="M279.83,94.767c0.434,-0.85 0.096,-1.892 -0.754,-2.325l-3.079,-1.572c-0.85,-0.433 -1.892,-0.096 -2.326,0.754l-17.699,34.687c-0.433,0.85 -0.095,1.892 0.754,2.325l3.08,1.572c0.85,0.433 1.892,0.095 2.326,-0.754l17.698,-34.687Z" style="fill:#6892a3;"/><path d="M229.924,100.431c-0.874,-0.773 -2.213,-0.691 -2.986,0.184l-2.802,3.171c-0.774,0.875 -0.691,2.213 0.184,2.986l5.916,5.23c0.875,0.773 2.214,0.691 2.987,-0.184l2.802,-3.171c0.774,-0.874 0.691,-2.213 -0.184,-2.986l-5.917,-5.23Z" style="fill:#6892a3;"/></g><g><path d="M1059.71,386.136c-3.838,-8.632 -14.03,-12.494 -22.746,-8.618c-8.715,3.875 -12.675,14.029 -8.837,22.661c-1.562,-7.059 2.723,-15.26 10.576,-18.751c7.853,-3.492 16.812,-1.181 21.007,4.708Z" style="fill:#6892a3;"/><path d="M1028.87,400.223c-3.838,-8.632 -14.03,-12.493 -22.745,-8.618c-8.716,3.875 -12.676,14.03 -8.837,22.661c-1.563,-7.059 2.723,-15.259 10.575,-18.751c7.853,-3.492 16.813,-1.181 21.007,4.708Z" style="fill:#6892a3;"/></g><g><path d="M1059.71,386.136c-3.838,-8.632 -14.03,-12.494 -22.746,-8.618c-8.715,3.875 -12.675,14.029 -8.837,22.661c-1.562,-7.059 2.723,-15.26 10.576,-18.751c7.853,-3.492 16.812,-1.181 21.007,4.708Z" style="fill:#6892a3;"/><path d="M1028.87,400.223c-3.838,-8.632 -14.03,-12.493 -22.745,-8.618c-8.716,3.875 -12.676,14.03 -8.837,22.661c-1.563,-7.059 2.723,-15.259 10.575,-18.751c7.853,-3.492 16.813,-1.181 21.007,4.708Z" style="fill:#6892a3;"/></g><path d="M784.85,563.199c0,-2.343 -1.903,-4.245 -4.245,-4.245l-25.763,0c-2.343,0 -4.245,1.902 -4.245,4.245l0,8.489c0,2.343 1.902,4.245 4.245,4.245l25.763,0c2.342,0 4.245,-1.902 4.245,-4.245l0,-8.489Z" style="fill:#dbf4ff;"/><path d="M784.85,563.199c0,-2.343 -1.903,-4.245 -4.245,-4.245l-25.763,0c-2.343,0 -4.245,1.902 -4.245,4.245l0,8.489c0,2.343 1.902,4.245 4.245,4.245l25.763,0c2.342,0 4.245,-1.902 4.245,-4.245l0,-8.489Z" style="fill:#dbf4ff;"/><path d="M784.85,583.153c0,-2.343 -1.903,-4.245 -4.245,-4.245l-25.763,0c-2.343,0 -4.245,1.902 -4.245,4.245l0,8.49c0,2.342 1.902,4.244 4.245,4.244l25.763,0c2.342,0 4.245,-1.902 4.245,-4.244l0,-8.49Z" style="fill:#dbf4ff;"/><path d="M784.85,583.153c0,-2.343 -1.903,-4.245 -4.245,-4.245l-25.763,0c-2.343,0 -4.245,1.902 -4.245,4.245l0,8.49c0,2.342 1.902,4.244 4.245,4.244l25.763,0c2.342,0 4.245,-1.902 4.245,-4.244l0,-8.49Z" style="fill:#dbf4ff;"/><path d="M822.385,563.199c0,-2.343 -1.902,-4.245 -4.245,-4.245l-25.763,0c-2.343,0 -4.245,1.902 -4.245,4.245l0,8.489c0,2.343 1.902,4.245 4.245,4.245l25.763,0c2.343,0 4.245,-1.902 4.245,-4.245l0,-8.489Z" style="fill:#dbf4ff;"/><path d="M822.385,563.199c0,-2.343 -1.902,-4.245 -4.245,-4.245l-25.763,0c-2.343,0 -4.245,1.902 -4.245,4.245l0,8.489c0,2.343 1.902,4.245 4.245,4.245l25.763,0c2.343,0 4.245,-1.902 4.245,-4.245l0,-8.489Z" style="fill:#dbf4ff;"/><path d="M822.385,583.153c0,-2.343 -1.902,-4.245 -4.245,-4.245l-25.763,0c-2.343,0 -4.245,1.902 -4.245,4.245l0,8.49c0,2.342 1.902,4.244 4.245,4.244l25.763,0c2.343,0 4.245,-1.902 4.245,-4.244l0,-8.49Z" style="fill:#dbf4ff;"/><path d="M822.385,583.153c0,-2.343 -1.902,-4.245 -4.245,-4.245l-25.763,0c-2.343,0 -4.245,1.902 -4.245,4.245l0,8.49c0,2.342 1.902,4.244 4.245,4.244l25.763,0c2.343,0 4.245,-1.902 4.245,-4.244l0,-8.49Z" style="fill:#dbf4ff;"/><path d="M244.68,541.563c0,-7.669 -6.226,-13.895 -13.895,-13.895l-92.236,0c-7.668,0 -13.895,6.226 -13.895,13.895l0,27.79c0,7.669 6.227,13.895 13.895,13.895l92.236,0c7.669,0 13.895,-6.226 13.895,-13.895l0,-27.79Z" style="fill:#6892a3;"/><path d="M244.68,541.563c0,-7.669 -6.226,-13.895 -13.895,-13.895l-92.236,0c-7.668,0 -13.895,6.226 -13.895,13.895l0,27.79c0,7.669 6.227,13.895 13.895,13.895l92.236,0c7.669,0 13.895,-6.226 13.895,-13.895l0,-27.79Z" style="fill:#6892a3;"/><path d="M147.915,540.632c0,-2.019 -1.639,-3.658 -3.658,-3.658l-7.315,0c-2.019,0 -3.658,1.639 -3.658,3.658l0,8.725c0,2.019 1.639,3.658 3.658,3.658l7.315,0c2.019,0 3.658,-1.639 3.658,-3.658l0,-8.725Z" style="fill:#d7eff9;"/><path d="M147.915,540.632c0,-2.019 -1.639,-3.658 -3.658,-3.658l-7.315,0c-2.019,0 -3.658,1.639 -3.658,3.658l0,8.725c0,2.019 1.639,3.658 3.658,3.658l7.315,0c2.019,0 3.658,-1.639 3.658,-3.658l0,-8.725Z" style="fill:#d7eff9;"/><path d="M166.981,540.632c0,-2.019 -1.639,-3.658 -3.658,-3.658l-7.315,0c-2.019,0 -3.658,1.639 -3.658,3.658l0,8.725c0,2.019 1.639,3.658 3.658,3.658l7.315,0c2.019,0 3.658,-1.639 3.658,-3.658l0,-8.725Z" style="fill:#d7eff9;"/><path d="M166.981,540.632c0,-2.019 -1.639,-3.658 -3.658,-3.658l-7.315,0c-2.019,0 -3.658,1.639 -3.658,3.658l0,8.725c0,2.019 1.639,3.658 3.658,3.658l7.315,0c2.019,0 3.658,-1.639 3.658,-3.658l0,-8.725Z" style="fill:#d7eff9;"/><path d="M185.084,540.632c0,-2.019 -1.639,-3.658 -3.658,-3.658l-7.315,0c-2.019,0 -3.658,1.639 -3.658,3.658l0,8.725c0,2.019 1.639,3.658 3.658,3.658l7.315,0c2.019,0 3.658,-1.639 3.658,-3.658l0,-8.725Z" style="fill:#d7eff9;"/><path d="M185.084,540.632c0,-2.019 -1.639,-3.658 -3.658,-3.658l-7.315,0c-2.019,0 -3.658,1.639 -3.658,3.658l0,8.725c0,2.019 1.639,3.658 3.658,3.658l7.315,0c2.019,0 3.658,-1.639 3.658,-3.658l0,-8.725Z" style="fill:#d7eff9;"/><path d="M203.647,540.632c0,-2.019 -1.639,-3.658 -3.658,-3.658l-7.315,0c-2.019,0 -3.658,1.639 -3.658,3.658l0,8.725c0,2.019 1.639,3.658 3.658,3.658l7.315,0c2.019,0 3.658,-1.639 3.658,-3.658l0,-8.725Z" style="fill:#d7eff9;"/><path d="M203.647,540.632c0,-2.019 -1.639,-3.658 -3.658,-3.658l-7.315,0c-2.019,0 -3.658,1.639 -3.658,3.658l0,8.725c0,2.019 1.639,3.658 3.658,3.658l7.315,0c2.019,0 3.658,-1.639 3.658,-3.658l0,-8.725Z" style="fill:#d7eff9;"/><path d="M221.28,540.632c0,-2.019 -1.639,-3.658 -3.658,-3.658l-7.315,0c-2.019,0 -3.658,1.639 -3.658,3.658l0,8.725c0,2.019 1.639,3.658 3.658,3.658l7.315,0c2.019,0 3.658,-1.639 3.658,-3.658l0,-8.725Z" style="fill:#d7eff9;"/><path d="M221.28,540.632c0,-2.019 -1.639,-3.658 -3.658,-3.658l-7.315,0c-2.019,0 -3.658,1.639 -3.658,3.658l0,8.725c0,2.019 1.639,3.658 3.658,3.658l7.315,0c2.019,0 3.658,-1.639 3.658,-3.658l0,-8.725Z" style="fill:#d7eff9;"/><path d="M239.514,540.632c0,-2.019 -1.639,-3.658 -3.658,-3.658l-7.315,0c-2.019,0 -3.658,1.639 -3.658,3.658l0,8.725c0,2.019 1.639,3.658 3.658,3.658l7.315,0c2.019,0 3.658,-1.639 3.658,-3.658l0,-8.725Z" style="fill:#d7eff9;"/><path d="M239.514,540.632c0,-2.019 -1.639,-3.658 -3.658,-3.658l-7.315,0c-2.019,0 -3.658,1.639 -3.658,3.658l0,8.725c0,2.019 1.639,3.658 3.658,3.658l7.315,0c2.019,0 3.658,-1.639 3.658,-3.658l0,-8.725Z" style="fill:#d7eff9;"/><path d="M144.352,578.908c4.414,0 7.998,3.584 7.998,7.998c0,4.414 -3.584,7.997 -7.998,7.997c-4.414,0 -7.997,-3.583 -7.997,-7.997c0,-4.414 3.583,-7.998 7.997,-7.998Zm0,3.999c2.207,0 3.999,1.792 3.999,3.999c0,2.207 -1.792,3.999 -3.999,3.999c-2.207,0 -3.998,-1.792 -3.998,-3.999c0,-2.207 1.791,-3.999 3.998,-3.999Z" style="fill:#6892a3;"/><path d="M144.352,578.908c4.414,0 7.998,3.584 7.998,7.998c0,4.414 -3.584,7.997 -7.998,7.997c-4.414,0 -7.997,-3.583 -7.997,-7.997c0,-4.414 3.583,-7.998 7.997,-7.998Zm0,3.999c2.207,0 3.999,1.792 3.999,3.999c0,2.207 -1.792,3.999 -3.999,3.999c-2.207,0 -3.998,-1.792 -3.998,-3.999c0,-2.207 1.791,-3.999 3.998,-3.999Z" style="fill:#6892a3;"/><path d="M218.794,578.908c4.414,0 7.998,3.584 7.998,7.998c0,4.414 -3.584,7.997 -7.998,7.997c-4.414,0 -7.998,-3.583 -7.998,-7.997c0,-4.414 3.584,-7.998 7.998,-7.998Zm0,3.999c2.207,0 3.999,1.792 3.999,3.999c0,2.207 -1.792,3.999 -3.999,3.999c-2.207,0 -3.999,-1.792 -3.999,-3.999c0,-2.207 1.792,-3.999 3.999,-3.999Z" style="fill:#6892a3;"/><path d="M218.794,578.908c4.414,0 7.998,3.584 7.998,7.998c0,4.414 -3.584,7.997 -7.998,7.997c-4.414,0 -7.998,-3.583 -7.998,-7.997c0,-4.414 3.584,-7.998 7.998,-7.998Zm0,3.999c2.207,0 3.999,1.792 3.999,3.999c0,2.207 -1.792,3.999 -3.999,3.999c-2.207,0 -3.999,-1.792 -3.999,-3.999c0,-2.207 1.792,-3.999 3.999,-3.999Z" style="fill:#6892a3;"/><text x="131.178px" y="576.249px" style="font-family:'ArialMT', 'Arial', sans-serif;font-size:24.453px;fill:#d7eff9;">M<tspan x="154.816px 171.636px 188.969px 204.751px 220.532px " y="576.249px 576.249px 576.249px 576.249px 576.249px ">AT19D</tspan></text><text x="131.178px" y="576.249px" style="font-family:'ArialMT', 'Arial', sans-serif;font-size:24.453px;fill:#d7eff9;">M<tspan x="154.816px 171.636px 188.969px 204.751px 220.532px " y="576.249px 576.249px 576.249px 576.249px 576.249px ">AT19D</tspan></text><rect x="0" y="642.785" width="1280.03" height="121.471" style="fill:#6892a3;"/></g></svg>