<?xml version="1.0" encoding="UTF-8" standalone="no"?><!DOCTYPE svg PUBLIC "-//W3C//DTD SVG 1.1//EN" "http://www.w3.org/Graphics/SVG/1.1/DTD/svg11.dtd"><svg width="100%" height="100%" viewBox="0 0 199 132" version="1.1" xmlns="http://www.w3.org/2000/svg" xmlns:xlink="http://www.w3.org/1999/xlink" xml:space="preserve" xmlns:serif="http://www.serif.com/" style="fill-rule:evenodd;clip-rule:evenodd;stroke-linejoin:round;stroke-miterlimit:1.41421;"><rect id="ArtBoard5" x="0" y="0" width="198.182" height="131.762" style="fill:none;"/><path d="M134.886,28.408c-4.02,-15.081 -19.755,-26.345 -38.529,-26.345c-18.303,0 -33.717,10.705 -38.205,25.216c-5.331,-2.552 -11.53,-4.015 -18.143,-4.015c-8.326,0 -15.997,2.319 -22.106,6.213c-8.502,5.42 -13.977,13.89 -13.977,23.401c0,6.532 2.583,12.574 6.956,17.473c-0.303,1.448 -0.459,2.92 -0.459,4.411c0,14.155 14.019,26.548 34.93,33.313c3.233,12.451 15.777,21.744 30.74,21.744c12.295,0 22.957,-6.275 28.162,-15.422c6.775,4.062 15.735,6.534 25.555,6.534c21.107,0 38.244,-11.424 38.244,-25.495c0,-1.358 -0.16,-2.692 -0.468,-3.994c16.073,-4.464 27.738,-17.685 27.738,-33.282c0,-19.26 -17.787,-34.896 -39.695,-34.896c-7.601,0 -14.705,1.882 -20.743,5.144Z" style="fill:#f1fbff;stroke:#d7eff9;stroke-width:1px;"/><g transform="matrix(1.99719,0,0,1.99719,-3161.38,-1628.69)"><text x="1594.12px" y="846.345px" style="font-family:'Courier';font-size:12px;fill:#6892a3;">an das TEAM</text><text x="1612.12px" y="858.345px" style="font-family:'Courier';font-size:12px;fill:#6892a3;">MAT19D</text></g></svg>