<?xml version="1.0" encoding="UTF-8" standalone="no"?><!DOCTYPE svg PUBLIC "-//W3C//DTD SVG 1.1//EN" "http://www.w3.org/Graphics/SVG/1.1/DTD/svg11.dtd"><svg width="100%" height="100%" viewBox="0 0 200 102" version="1.1" xmlns="http://www.w3.org/2000/svg" xmlns:xlink="http://www.w3.org/1999/xlink" xml:space="preserve" xmlns:serif="http://www.serif.com/" style="fill-rule:evenodd;clip-rule:evenodd;stroke-linejoin:round;stroke-miterlimit:1.41421;"><rect id="ArtBoard1" x="0" y="0" width="199.795" height="101.72" style="fill:none;"/><path d="M64.412,23.314c4.021,-11.375 19.755,-19.872 38.53,-19.872c18.302,0 33.716,8.075 38.204,19.02c5.331,-1.925 11.531,-3.028 18.143,-3.028c19.915,0 36.083,10.008 36.083,22.336c0,4.927 -2.583,9.484 -6.955,13.179c0.303,1.092 0.458,2.202 0.458,3.327c0,10.677 -14.018,20.024 -34.93,25.127c-3.233,9.391 -15.776,16.4 -30.739,16.4c-12.296,0 -22.958,-4.733 -28.162,-11.631c-6.776,3.063 -15.736,4.928 -25.555,4.928c-21.108,0 -38.245,-8.617 -38.245,-19.23c0,-1.025 0.16,-2.031 0.468,-3.012c-16.072,-3.368 -27.737,-13.339 -27.737,-25.104c0,-14.526 17.786,-26.32 39.694,-26.32c7.601,0 14.705,1.419 20.743,3.88Z" style="fill:#c3edff;"/></svg>