<?xml version="1.0" encoding="UTF-8" standalone="no"?><!DOCTYPE svg PUBLIC "-//W3C//DTD SVG 1.1//EN" "http://www.w3.org/Graphics/SVG/1.1/DTD/svg11.dtd"><svg width="100%" height="100%" viewBox="0 0 200 102" version="1.1" xmlns="http://www.w3.org/2000/svg" xmlns:xlink="http://www.w3.org/1999/xlink" xml:space="preserve" xmlns:serif="http://www.serif.com/" style="fill-rule:evenodd;clip-rule:evenodd;stroke-linejoin:round;stroke-miterlimit:1.41421;"><rect id="ArtBoard1" x="0" y="0" width="199.795" height="101.72" style="fill:none;"/><path d="M64.412,23.314c4.021,-11.375 19.755,-19.872 38.53,-19.872c18.302,0 33.716,8.075 38.204,19.02c5.331,-1.925 11.531,-3.028 18.143,-3.028c8.326,0 15.997,1.749 22.106,4.686c8.502,4.088 13.977,10.476 13.977,17.65c0,4.927 -2.583,9.484 -6.955,13.179c0.303,1.092 0.458,2.202 0.458,3.327c0,10.677 -14.018,20.024 -34.93,25.127c-3.233,9.391 -15.776,16.4 -30.739,16.4c-12.296,0 -22.958,-4.733 -28.162,-11.631c-6.776,3.063 -15.736,4.928 -25.555,4.928c-21.108,0 -38.245,-8.617 -38.245,-19.23c0,-1.025 0.16,-2.031 0.468,-3.012c-16.072,-3.368 -27.737,-13.339 -27.737,-25.104c0,-14.526 17.786,-26.32 39.694,-26.32c7.601,0 14.705,1.419 20.743,3.88Z" style="fill:#f1fbff;stroke:#d7eff9;stroke-width:1px;"/><g><path d="M40.731,74.897l0,-32.455l10.364,0c2.34,0 4.279,0.123 5.51,0.433c1.724,0.428 3.162,1.214 4.38,2.335c1.587,1.447 2.654,3.316 3.44,5.567c0.787,2.251 1.18,4.823 1.18,7.716c0,2.464 -0.267,4.649 -0.8,6.553c-0.534,1.903 -1.218,3.479 -2.052,4.726c-0.835,1.247 -1.748,2.229 -2.74,2.945c-0.992,0.715 -2.237,1.388 -3.64,1.757c-1.402,0.37 -2.966,0.423 -4.785,0.423l-10.857,0Zm5.927,-5.677l4.465,0.04c1.984,0 2.773,-0.062 3.837,-0.632c1.246,-0.666 2.03,-1.58 2.393,-2.361c0.65,-1.398 0.846,-1.68 1.303,-3.422c0.452,-1.726 0.43,-2.178 0.505,-4.621c0.104,-3.393 -0.423,-5.657 -1.441,-7.488c-0.459,-0.825 -1.532,-1.629 -1.532,-1.629c0,0 -1.22,-0.566 -1.285,-0.586c-1.111,-0.349 -1.495,-0.418 -3.862,-0.418l-4.489,0.058l0.106,21.059Z" style="fill:#1d3b8b;fill-rule:nonzero;"/><path d="M84.046,33.882l0.048,-5.929l-5.836,0c-0.027,-0.025 -9.704,0.361 -9.715,10.021c-0.014,11.837 0.087,25.442 0.074,25.482c0,0 -1.204,11.474 10.752,11.441c4.722,-0.013 4.737,0 4.737,0l-0.019,-6.183l-4.437,-0.004c0,0 -4.88,0.446 -5.102,-5.427c-0.221,-5.874 0.104,-25.14 0.104,-25.14c0,0 0.422,-4.155 5.197,-4.257c4.774,-0.102 4.197,-0.004 4.197,-0.004Z" style="fill:#1d3b8b;"/><rect x="88.762" y="42.536" width="5.991" height="32.362" style="fill:#1d3b8b;"/><g><path d="M88.762,33.992l0,-5.955l2.051,0c0.463,0 0.816,0.029 1.06,0.085c0.341,0.079 0.632,0.221 0.873,0.427c0.315,0.265 0.549,0.604 0.705,1.018c0.156,0.412 0.234,0.884 0.234,1.415c0,0.452 -0.053,0.853 -0.159,1.202c-0.106,0.35 -0.241,0.639 -0.406,0.867c-0.165,0.229 -0.346,0.409 -0.542,0.541c-0.197,0.131 -0.433,0.23 -0.711,0.298c-0.278,0.068 -0.596,0.102 -0.957,0.102l-2.148,0Zm0.788,-0.703l1.271,0c0.393,0 0.701,-0.037 0.924,-0.11c0.224,-0.073 0.402,-0.176 0.534,-0.308c0.187,-0.187 0.333,-0.438 0.437,-0.754c0.104,-0.315 0.156,-0.698 0.156,-1.147c0,-0.623 -0.102,-1.102 -0.306,-1.436c-0.205,-0.334 -0.453,-0.558 -0.746,-0.672c-0.211,-0.081 -0.551,-0.122 -1.019,-0.122l-1.251,0l0,4.549Z" style="fill:#1d3b8b;fill-rule:nonzero;"/><path d="M94.14,28.878l0,-0.841l0.731,0l0,0.841l-0.731,0Zm0,5.114l0,-4.314l0.731,0l0,4.314l-0.731,0Z" style="fill:#1d3b8b;fill-rule:nonzero;"/><path d="M96.03,34.349l0.711,0.106c0.03,0.219 0.112,0.379 0.247,0.479c0.182,0.135 0.43,0.203 0.744,0.203c0.338,0 0.6,-0.068 0.784,-0.203c0.184,-0.136 0.308,-0.325 0.373,-0.569c0.038,-0.149 0.056,-0.461 0.053,-0.938c-0.319,0.376 -0.717,0.565 -1.194,0.565c-0.593,0 -1.052,-0.214 -1.377,-0.642c-0.325,-0.428 -0.487,-0.941 -0.487,-1.539c0,-0.412 0.074,-0.792 0.223,-1.14c0.149,-0.348 0.365,-0.616 0.648,-0.806c0.283,-0.19 0.615,-0.284 0.997,-0.284c0.509,0 0.929,0.205 1.259,0.617l0,-0.52l0.674,0l0,3.729c0,0.671 -0.068,1.147 -0.205,1.427c-0.137,0.281 -0.353,0.502 -0.65,0.664c-0.296,0.163 -0.661,0.244 -1.094,0.244c-0.515,0 -0.93,-0.115 -1.247,-0.347c-0.317,-0.232 -0.47,-0.58 -0.459,-1.046Zm0.605,-2.591c0,0.566 0.112,0.979 0.337,1.239c0.225,0.26 0.507,0.389 0.845,0.389c0.336,0 0.617,-0.129 0.845,-0.387c0.227,-0.259 0.341,-0.664 0.341,-1.217c0,-0.528 -0.117,-0.926 -0.351,-1.194c-0.234,-0.268 -0.517,-0.402 -0.847,-0.402c-0.325,0 -0.601,0.132 -0.829,0.396c-0.227,0.264 -0.341,0.656 -0.341,1.176Z" style="fill:#1d3b8b;fill-rule:nonzero;"/><path d="M100.674,28.878l0,-0.841l0.731,0l0,0.841l-0.731,0Zm0,5.114l0,-4.314l0.731,0l0,4.314l-0.731,0Z" style="fill:#1d3b8b;fill-rule:nonzero;"/><path d="M104.234,33.338l0.106,0.645c-0.206,0.044 -0.39,0.066 -0.552,0.066c-0.266,0 -0.472,-0.042 -0.618,-0.126c-0.146,-0.084 -0.249,-0.195 -0.308,-0.331c-0.06,-0.137 -0.09,-0.425 -0.09,-0.864l0,-2.481l-0.536,0l0,-0.569l0.536,0l0,-1.068l0.727,-0.439l0,1.507l0.735,0l0,0.569l-0.735,0l0,2.522c0,0.209 0.013,0.343 0.039,0.402c0.026,0.06 0.068,0.107 0.126,0.142c0.058,0.036 0.141,0.053 0.25,0.053c0.081,0 0.188,-0.009 0.32,-0.028Z" style="fill:#1d3b8b;fill-rule:nonzero;"/><path d="M108.124,33.46c-0.271,0.23 -0.532,0.392 -0.782,0.487c-0.251,0.095 -0.519,0.142 -0.806,0.142c-0.474,0 -0.838,-0.116 -1.093,-0.347c-0.255,-0.232 -0.382,-0.527 -0.382,-0.888c0,-0.211 0.048,-0.404 0.144,-0.578c0.097,-0.175 0.222,-0.315 0.378,-0.421c0.156,-0.105 0.331,-0.185 0.526,-0.239c0.144,-0.038 0.36,-0.075 0.65,-0.11c0.59,-0.07 1.025,-0.154 1.304,-0.252c0.002,-0.1 0.004,-0.164 0.004,-0.191c0,-0.298 -0.069,-0.507 -0.207,-0.629c-0.187,-0.166 -0.465,-0.248 -0.833,-0.248c-0.344,0 -0.598,0.06 -0.761,0.181c-0.164,0.12 -0.285,0.333 -0.364,0.639l-0.715,-0.097c0.065,-0.306 0.172,-0.553 0.321,-0.742c0.149,-0.188 0.364,-0.333 0.646,-0.434c0.281,-0.101 0.608,-0.152 0.979,-0.152c0.368,0 0.667,0.043 0.897,0.13c0.231,0.086 0.4,0.195 0.508,0.327c0.108,0.131 0.184,0.297 0.227,0.497c0.025,0.125 0.037,0.349 0.037,0.674l0,0.975c0,0.68 0.016,1.11 0.047,1.29c0.031,0.18 0.093,0.352 0.185,0.518l-0.764,0c-0.076,-0.152 -0.125,-0.329 -0.146,-0.532Zm-0.061,-1.633c-0.266,0.108 -0.664,0.2 -1.194,0.276c-0.301,0.043 -0.513,0.092 -0.638,0.146c-0.124,0.054 -0.221,0.134 -0.288,0.238c-0.068,0.104 -0.102,0.22 -0.102,0.347c0,0.195 0.074,0.358 0.221,0.487c0.148,0.13 0.364,0.195 0.648,0.195c0.282,0 0.532,-0.061 0.752,-0.184c0.219,-0.124 0.38,-0.292 0.483,-0.506c0.078,-0.165 0.118,-0.409 0.118,-0.731l0,-0.268Z" style="fill:#1d3b8b;fill-rule:nonzero;"/><rect x="109.799" y="28.037" width="0.731" height="5.954" style="fill:#1d3b8b;"/><path d="M118.017,31.904l0.788,0.199c-0.166,0.647 -0.463,1.141 -0.892,1.48c-0.429,0.34 -0.954,0.51 -1.574,0.51c-0.642,0 -1.164,-0.13 -1.566,-0.392c-0.402,-0.261 -0.708,-0.64 -0.918,-1.135c-0.209,-0.496 -0.314,-1.028 -0.314,-1.596c0,-0.62 0.118,-1.161 0.355,-1.623c0.237,-0.462 0.574,-0.812 1.011,-1.052c0.438,-0.24 0.919,-0.359 1.444,-0.359c0.596,0 1.097,0.151 1.503,0.455c0.406,0.303 0.689,0.729 0.849,1.279l-0.776,0.183c-0.138,-0.434 -0.338,-0.749 -0.601,-0.947c-0.263,-0.197 -0.593,-0.296 -0.991,-0.296c-0.457,0 -0.84,0.11 -1.147,0.329c-0.308,0.219 -0.524,0.514 -0.648,0.883c-0.125,0.37 -0.187,0.751 -0.187,1.144c0,0.506 0.074,0.948 0.221,1.326c0.148,0.378 0.377,0.66 0.689,0.847c0.311,0.187 0.648,0.28 1.011,0.28c0.442,0 0.815,-0.127 1.121,-0.382c0.306,-0.254 0.513,-0.632 0.622,-1.133Z" style="fill:#1d3b8b;fill-rule:nonzero;"/><path d="M122.077,33.46c-0.271,0.23 -0.532,0.392 -0.782,0.487c-0.251,0.095 -0.519,0.142 -0.806,0.142c-0.474,0 -0.838,-0.116 -1.093,-0.347c-0.254,-0.232 -0.382,-0.527 -0.382,-0.888c0,-0.211 0.049,-0.404 0.145,-0.578c0.096,-0.175 0.222,-0.315 0.377,-0.421c0.156,-0.105 0.331,-0.185 0.526,-0.239c0.144,-0.038 0.36,-0.075 0.65,-0.11c0.59,-0.07 1.025,-0.154 1.304,-0.252c0.003,-0.1 0.004,-0.164 0.004,-0.191c0,-0.298 -0.069,-0.507 -0.207,-0.629c-0.187,-0.166 -0.464,-0.248 -0.833,-0.248c-0.344,0 -0.597,0.06 -0.761,0.181c-0.164,0.12 -0.285,0.333 -0.364,0.639l-0.715,-0.097c0.065,-0.306 0.172,-0.553 0.321,-0.742c0.149,-0.188 0.364,-0.333 0.646,-0.434c0.282,-0.101 0.608,-0.152 0.979,-0.152c0.368,0 0.667,0.043 0.897,0.13c0.231,0.086 0.4,0.195 0.508,0.327c0.108,0.131 0.184,0.297 0.228,0.497c0.024,0.125 0.036,0.349 0.036,0.674l0,0.975c0,0.68 0.016,1.11 0.047,1.29c0.031,0.18 0.093,0.352 0.185,0.518l-0.764,0c-0.076,-0.152 -0.124,-0.329 -0.146,-0.532Zm-0.061,-1.633c-0.265,0.108 -0.664,0.2 -1.194,0.276c-0.301,0.043 -0.513,0.092 -0.638,0.146c-0.124,0.054 -0.221,0.134 -0.288,0.238c-0.068,0.104 -0.102,0.22 -0.102,0.347c0,0.195 0.074,0.358 0.222,0.487c0.147,0.13 0.363,0.195 0.647,0.195c0.282,0 0.532,-0.061 0.752,-0.184c0.219,-0.124 0.38,-0.292 0.483,-0.506c0.079,-0.165 0.118,-0.409 0.118,-0.731l0,-0.268Z" style="fill:#1d3b8b;fill-rule:nonzero;"/><path d="M123.521,33.992l0,-4.314l0.658,0l0,0.654c0.167,-0.306 0.322,-0.508 0.465,-0.605c0.142,-0.098 0.298,-0.146 0.469,-0.146c0.246,0 0.497,0.078 0.751,0.235l-0.252,0.679c-0.178,-0.106 -0.357,-0.159 -0.536,-0.159c-0.16,0 -0.303,0.048 -0.43,0.144c-0.128,0.096 -0.218,0.23 -0.273,0.4c-0.081,0.26 -0.121,0.545 -0.121,0.853l0,2.259l-0.731,0Z" style="fill:#1d3b8b;fill-rule:nonzero;"/><path d="M129.671,32.603l0.756,0.093c-0.12,0.441 -0.34,0.784 -0.662,1.028c-0.323,0.243 -0.734,0.365 -1.235,0.365c-0.631,0 -1.131,-0.194 -1.501,-0.583c-0.37,-0.388 -0.554,-0.933 -0.554,-1.635c0,-0.725 0.187,-1.288 0.56,-1.689c0.374,-0.401 0.859,-0.601 1.454,-0.601c0.577,0 1.048,0.196 1.414,0.589c0.365,0.392 0.548,0.945 0.548,1.657c0,0.043 -0.001,0.108 -0.004,0.195l-3.217,0c0.027,0.474 0.161,0.837 0.402,1.088c0.241,0.252 0.542,0.378 0.902,0.378c0.268,0 0.497,-0.07 0.686,-0.211c0.19,-0.141 0.34,-0.366 0.451,-0.674Zm-2.4,-1.182l2.408,0c-0.032,-0.363 -0.124,-0.635 -0.276,-0.817c-0.233,-0.281 -0.535,-0.422 -0.906,-0.422c-0.335,0 -0.618,0.112 -0.846,0.337c-0.229,0.225 -0.356,0.525 -0.38,0.902Z" style="fill:#1d3b8b;fill-rule:nonzero;"/><path d="M134.118,32.603l0.755,0.093c-0.119,0.441 -0.34,0.784 -0.662,1.028c-0.322,0.243 -0.734,0.365 -1.235,0.365c-0.631,0 -1.131,-0.194 -1.501,-0.583c-0.369,-0.388 -0.554,-0.933 -0.554,-1.635c0,-0.725 0.187,-1.288 0.561,-1.689c0.373,-0.401 0.858,-0.601 1.454,-0.601c0.576,0 1.048,0.196 1.413,0.589c0.366,0.392 0.548,0.945 0.548,1.657c0,0.043 -0.001,0.108 -0.004,0.195l-3.217,0c0.028,0.474 0.162,0.837 0.403,1.088c0.241,0.252 0.541,0.378 0.901,0.378c0.268,0 0.497,-0.07 0.687,-0.211c0.189,-0.141 0.339,-0.366 0.451,-0.674Zm-2.401,-1.182l2.409,0c-0.033,-0.363 -0.125,-0.635 -0.277,-0.817c-0.232,-0.281 -0.534,-0.422 -0.905,-0.422c-0.336,0 -0.618,0.112 -0.847,0.337c-0.229,0.225 -0.355,0.525 -0.38,0.902Z" style="fill:#1d3b8b;fill-rule:nonzero;"/><path d="M135.543,33.992l0,-4.314l0.658,0l0,0.654c0.168,-0.306 0.323,-0.508 0.465,-0.605c0.142,-0.098 0.299,-0.146 0.469,-0.146c0.247,0 0.497,0.078 0.752,0.235l-0.252,0.679c-0.179,-0.106 -0.358,-0.159 -0.536,-0.159c-0.16,0 -0.304,0.048 -0.431,0.144c-0.127,0.096 -0.218,0.23 -0.272,0.4c-0.081,0.26 -0.122,0.545 -0.122,0.853l0,2.259l-0.731,0Z" style="fill:#1d3b8b;fill-rule:nonzero;"/><rect x="140.98" y="28.037" width="0.788" height="5.954" style="fill:#1d3b8b;"/><path d="M143.243,33.992l0,-4.314l0.658,0l0,0.613c0.317,-0.473 0.774,-0.71 1.373,-0.71c0.26,0 0.499,0.046 0.717,0.14c0.218,0.093 0.381,0.216 0.489,0.367c0.108,0.152 0.184,0.332 0.228,0.541c0.027,0.135 0.04,0.372 0.04,0.71l0,2.653l-0.731,0l0,-2.624c0,-0.298 -0.028,-0.521 -0.085,-0.668c-0.057,-0.148 -0.158,-0.266 -0.303,-0.354c-0.145,-0.088 -0.315,-0.132 -0.509,-0.132c-0.312,0 -0.581,0.099 -0.807,0.297c-0.226,0.197 -0.339,0.572 -0.339,1.125l0,2.356l-0.731,0Z" style="fill:#1d3b8b;fill-rule:nonzero;"/><path d="M147.457,32.704l0.723,-0.114c0.041,0.29 0.154,0.512 0.339,0.667c0.186,0.154 0.445,0.231 0.778,0.231c0.336,0 0.585,-0.068 0.747,-0.205c0.163,-0.137 0.244,-0.297 0.244,-0.481c0,-0.166 -0.072,-0.296 -0.215,-0.39c-0.101,-0.065 -0.35,-0.148 -0.748,-0.248c-0.536,-0.135 -0.907,-0.253 -1.115,-0.351c-0.207,-0.099 -0.364,-0.236 -0.471,-0.411c-0.107,-0.174 -0.16,-0.367 -0.16,-0.578c0,-0.193 0.044,-0.371 0.132,-0.534c0.088,-0.164 0.208,-0.3 0.359,-0.409c0.114,-0.084 0.269,-0.155 0.465,-0.213c0.197,-0.058 0.407,-0.087 0.632,-0.087c0.338,0 0.635,0.048 0.891,0.146c0.256,0.097 0.445,0.229 0.567,0.396c0.122,0.167 0.206,0.389 0.252,0.668l-0.715,0.098c-0.033,-0.223 -0.127,-0.396 -0.282,-0.52c-0.156,-0.125 -0.376,-0.187 -0.66,-0.187c-0.336,0 -0.576,0.055 -0.719,0.166c-0.144,0.111 -0.215,0.241 -0.215,0.39c0,0.095 0.029,0.18 0.089,0.256c0.059,0.079 0.153,0.144 0.28,0.195c0.073,0.027 0.289,0.09 0.646,0.187c0.517,0.138 0.878,0.251 1.082,0.339c0.205,0.088 0.365,0.216 0.482,0.384c0.116,0.168 0.174,0.376 0.174,0.625c0,0.244 -0.071,0.474 -0.213,0.689c-0.142,0.215 -0.347,0.382 -0.615,0.499c-0.268,0.118 -0.572,0.177 -0.91,0.177c-0.561,0 -0.988,-0.116 -1.281,-0.349c-0.294,-0.233 -0.482,-0.578 -0.563,-1.036Z" style="fill:#1d3b8b;fill-rule:nonzero;"/><path d="M153.505,33.338l0.105,0.645c-0.206,0.044 -0.39,0.066 -0.552,0.066c-0.265,0 -0.471,-0.042 -0.617,-0.126c-0.147,-0.084 -0.25,-0.195 -0.309,-0.331c-0.06,-0.137 -0.089,-0.425 -0.089,-0.864l0,-2.481l-0.537,0l0,-0.569l0.537,0l0,-1.068l0.727,-0.439l0,1.507l0.735,0l0,0.569l-0.735,0l0,2.522c0,0.209 0.012,0.343 0.038,0.402c0.026,0.06 0.068,0.107 0.126,0.142c0.058,0.036 0.142,0.053 0.25,0.053c0.081,0 0.188,-0.009 0.321,-0.028Z" style="fill:#1d3b8b;fill-rule:nonzero;"/><path d="M154.643,28.878l0,-0.841l0.731,0l0,0.841l-0.731,0Zm0,5.114l0,-4.314l0.731,0l0,4.314l-0.731,0Z" style="fill:#1d3b8b;fill-rule:nonzero;"/><path d="M158.203,33.338l0.106,0.645c-0.206,0.044 -0.39,0.066 -0.552,0.066c-0.266,0 -0.471,-0.042 -0.618,-0.126c-0.146,-0.084 -0.249,-0.195 -0.308,-0.331c-0.06,-0.137 -0.09,-0.425 -0.09,-0.864l0,-2.481l-0.536,0l0,-0.569l0.536,0l0,-1.068l0.727,-0.439l0,1.507l0.735,0l0,0.569l-0.735,0l0,2.522c0,0.209 0.013,0.343 0.039,0.402c0.026,0.06 0.068,0.107 0.126,0.142c0.058,0.036 0.141,0.053 0.25,0.053c0.081,0 0.188,-0.009 0.32,-0.028Z" style="fill:#1d3b8b;fill-rule:nonzero;"/><path d="M162.045,33.992l0,-0.634c-0.336,0.487 -0.792,0.731 -1.369,0.731c-0.254,0 -0.492,-0.049 -0.713,-0.146c-0.22,-0.098 -0.384,-0.22 -0.491,-0.368c-0.107,-0.147 -0.182,-0.328 -0.226,-0.542c-0.029,-0.143 -0.044,-0.371 -0.044,-0.682l0,-2.673l0.731,0l0,2.392c0,0.382 0.015,0.64 0.045,0.772c0.046,0.192 0.143,0.343 0.292,0.453c0.149,0.11 0.333,0.165 0.552,0.165c0.22,0 0.426,-0.057 0.618,-0.169c0.192,-0.112 0.328,-0.265 0.408,-0.459c0.08,-0.194 0.12,-0.474 0.12,-0.843l0,-2.311l0.731,0l0,4.314l-0.654,0Z" style="fill:#1d3b8b;fill-rule:nonzero;"/><path d="M165.56,33.338l0.106,0.645c-0.206,0.044 -0.39,0.066 -0.552,0.066c-0.266,0 -0.471,-0.042 -0.618,-0.126c-0.146,-0.084 -0.249,-0.195 -0.308,-0.331c-0.06,-0.137 -0.09,-0.425 -0.09,-0.864l0,-2.481l-0.536,0l0,-0.569l0.536,0l0,-1.068l0.727,-0.439l0,1.507l0.735,0l0,0.569l-0.735,0l0,2.522c0,0.209 0.013,0.343 0.039,0.402c0.026,0.06 0.068,0.107 0.126,0.142c0.058,0.036 0.141,0.053 0.25,0.053c0.081,0 0.188,-0.009 0.32,-0.028Z" style="fill:#1d3b8b;fill-rule:nonzero;"/><path d="M169.468,32.603l0.755,0.093c-0.119,0.441 -0.339,0.784 -0.662,1.028c-0.322,0.243 -0.733,0.365 -1.235,0.365c-0.63,0 -1.131,-0.194 -1.5,-0.583c-0.37,-0.388 -0.555,-0.933 -0.555,-1.635c0,-0.725 0.187,-1.288 0.561,-1.689c0.374,-0.401 0.858,-0.601 1.454,-0.601c0.577,0 1.048,0.196 1.413,0.589c0.366,0.392 0.549,0.945 0.549,1.657c0,0.043 -0.002,0.108 -0.004,0.195l-3.217,0c0.027,0.474 0.161,0.837 0.402,1.088c0.241,0.252 0.541,0.378 0.902,0.378c0.268,0 0.497,-0.07 0.686,-0.211c0.19,-0.141 0.34,-0.366 0.451,-0.674Zm-2.4,-1.182l2.408,0c-0.032,-0.363 -0.125,-0.635 -0.276,-0.817c-0.233,-0.281 -0.535,-0.422 -0.906,-0.422c-0.336,0 -0.618,0.112 -0.847,0.337c-0.229,0.225 -0.355,0.525 -0.379,0.902Z" style="fill:#1d3b8b;fill-rule:nonzero;"/></g></g></svg>